<?xml version="1.0" encoding="UTF-8" standalone="no"?>
<svg
   version="1.0"
   width="1200.000000pt"
   height="581.000000pt"
   viewBox="0 0 1200.000000 581.000000"
   preserveAspectRatio="xMidYMid meet"
   id="svg122"
   sodipodi:docname="aplic-tcemt-logo.svg"
   xml:space="preserve"
   inkscape:version="1.4 (86a8ad7, 2024-10-11)"
   xmlns:inkscape="http://www.inkscape.org/namespaces/inkscape"
   xmlns:sodipodi="http://sodipodi.sourceforge.net/DTD/sodipodi-0.dtd"
   xmlns="http://www.w3.org/2000/svg"
   xmlns:svg="http://www.w3.org/2000/svg"><defs
     id="defs122"><rect
       x="63.63961"
       y="793.3738"
       width="1531.5933"
       height="199.40411"
       id="rect8" /><rect
       x="233.89531"
       y="-793.09328"
       width="1387.2411"
       height="690.93211"
       id="rect123" /><rect
       x="298.46053"
       y="-230.02372"
       width="1231.8626"
       height="199.60736"
       id="rect122" /><rect
       x="63.63961"
       y="793.3738"
       width="1531.5933"
       height="199.40411"
       id="rect9" /></defs><sodipodi:namedview
     id="namedview122"
     pagecolor="#ffffff"
     bordercolor="#666666"
     borderopacity="1.0"
     inkscape:showpageshadow="2"
     inkscape:pageopacity="0.0"
     inkscape:pagecheckerboard="0"
     inkscape:deskcolor="#d1d1d1"
     inkscape:document-units="pt"
     inkscape:zoom="0.5"
     inkscape:cx="882"
     inkscape:cy="347"
     inkscape:window-width="1920"
     inkscape:window-height="1017"
     inkscape:window-x="1912"
     inkscape:window-y="-8"
     inkscape:window-maximized="1"
     inkscape:current-layer="svg122" /><g
     id="g1"><path
       style="font-size:64px;line-height:1.05;font-family:Esphimere;-inkscape-font-specification:Esphimere;text-align:center;letter-spacing:50px;word-spacing:0.16px;text-anchor:middle;white-space:pre;fill:#000000;stroke-width:0.75;opacity:1;fill-opacity:1"
       d="m 237.08618,51.909275 v 3.6 l -10.224,-0.048 c -3.03999,0 -4.56,0.528 -4.56,1.584 v 2.736 c 0.16,1.119998 1.216,1.839998 3.16801,2.16 l 6.096,1.104 c 4.256,0.735998 6.384,2.736 6.384,6 v 2.496 c 0,3.84 -2.64,5.76 -7.92,5.76 l -11.328,-0.336 v -3.648 l 11.136,0.096 c 2.75199,0 4.128,-0.624 4.128,-1.872 v -2.496 c -0.032,-1.152 -1.12,-1.904002 -3.264,-2.256 l -6.672,-1.2 c -3.616,-0.927997 -5.52,-2.832 -5.712,-5.712 l 0.048,-2.832 c 0,-3.648 2.832,-5.472 8.496,-5.472 z m 136.53612,-0.336 v 25.68 h -4.176 v -25.68 z m 0,-10.703995 v 4.176 h -4.176 v -4.176 z m 148.95587,11.039995 v 3.6 l -10.224,-0.048 c -3.03998,0 -4.56,0.528 -4.56,1.584 v 2.736 c 0.16005,1.119998 1.21605,1.839998 3.168,2.16 l 6.096,1.104 c 4.25602,0.735998 6.384,2.736 6.384,6 v 2.496 c 0,3.84 -2.64,5.76 -7.92,5.76 l -11.328,-0.336 v -3.648 l 11.136,0.096 c 2.75205,0 4.128,-0.624 4.128,-1.872 v -2.496 c -0.0322,-1.152 -1.11998,-1.904002 -3.264,-2.256 l -6.672,-1.2 c -3.61598,-0.927997 -5.52,-2.832 -5.712,-5.712 l 0.048,-2.832 c 0,-3.648 2.832,-5.472 8.496,-5.472 z m 136.932,-6.480005 v 6.144005 h 7.2 v 3.504 h -7.2 v 15.456 c 0.096,1.952002 0.87997,2.960003 2.352,3.024 l 4.992,-0.144 v 3.312 l -5.76,0.528 c -3.84,0 -5.76,-2.4 -5.76,-7.2 v -14.976 h -3.84 v -3.504 h 3.84 V 45.42927 Z m 139.332,21.360005 c 0.44797,4.671998 2.88,7.008 7.296,7.008 1.69597,0 4.35202,-0.159998 7.968,-0.48 l 0.48,3.408 c -2.304,0.512003 -5.16802,0.768 -8.592,0.768 -7.392,0 -11.088,-4.287997 -11.088,-12.864 0,-8.607997 2.784,-12.912 8.352,-12.912 h 4.176 c 5.28,0 8.00003,3.312 8.16,9.936 -0.15997,3.423998 -1.42402,5.136 -3.792,5.136 z m 10.608,-3.696 c 1.344,0 2.016,-0.639997 2.016,-1.92 -0.0323,-3.807997 -1.56802,-5.727997 -4.608,-5.76 h -3.36 c -2.72003,0.03203 -4.28798,2.592 -4.704,7.68 z m 152.31585,14.256 v -14.4 c 0,-5.120002 -1.18403,-7.68 -3.552,-7.68 h -2.88 c -1.40798,0.06397 -3.072,1.008 -4.992,2.832 v 19.248 h -4.176 v -25.776 h 3.792 l 0.432,2.88 c 1.92,-1.92 3.56797,-2.88 4.944,-2.88 h 2.88 c 2.75198,0 4.83203,1.344 6.24,4.032 1.92,-2.367997 3.90398,-3.711997 5.952,-4.032 h 2.4 c 5.12002,0 7.68,3.792 7.68,11.376 v 14.4 h -4.128 v -14.4 c 0,-5.120002 -1.18403,-7.68 -3.552,-7.68 h -2.4 c -1.40798,0.06397 -3.05602,1.136003 -4.944,3.216 0.288,1.311998 0.432,2.799998 0.432,4.464 v 14.4 z m 163.08018,-12.192 h -9.024 c -1.536,0.288 -2.384,1.776 -2.544,4.464 0,2.912002 1.008,4.368 3.024,4.368 2.272,-0.06397 5.1201,-1.119997 8.544,-3.168 z m -5.856,-13.584 c 6.688,0.288 10.032,3.279998 10.032,8.976 v 16.8 h -3.648 l -0.24,-2.976 c -3.552,1.952002 -6.4959,2.943998 -8.832,2.976 -4.8,0 -7.2,-2.655997 -7.2,-7.968 0.096,-5.120002 2.32,-7.776 6.672,-7.968 h 9.072 v -2.208 c 0,-2.208 -1.2159,-3.504 -3.648,-3.888 -1.184,-0.06397 -2.3679,-0.096 -3.552,-0.096 h -6.144 v -3.168 c 2.3361,-0.320002 4.8321,-0.48 7.488,-0.48 z"
       id="text122"
       aria-label="sistema"
       sodipodi:nodetypes="cccscccssccccsccccccccccccccccccccscccssccccscccccccccccccccccscccccccsccsssscscsccccscsscccccccssccssccssccscccccccccscccccccscsccc" /><path
       id="rect6"
       style="opacity:1;fill:#e15e16;stroke-width:1.5;stroke-linecap:square;stroke-miterlimit:6.5;fill-opacity:1"
       d="m 493.7373,106.06641 v 46.13818 h 178.7212 v -46.13818 z m 423.375,217.125 v 46.13818 h 178.7212 v -46.13818 z" /><path
       id="rect7"
       style="opacity:1;fill:#e15e16;stroke-width:1.5;stroke-linecap:square;stroke-miterlimit:6.5;fill-opacity:1"
       d="m 22.470703,493.20703 v 77.42871 H 1177.5293 v -77.42871 z" /><path
       d="m 77.921459,509.95148 h 4.199708 l 18.615713,41.84813 h -6.105953 l -5.54004,-12.33104 H 71.398514 l -5.242185,12.33104 h -6.105952 z m 8.727046,24.21533 -6.701656,-15.07128 -6.225097,15.07128 z m 36.352255,17.6328 v -3.48486 q -1.72755,1.87646 -3.96143,2.91895 -2.2041,1.04247 -4.4082,1.04247 -2.59131,0 -4.79541,-1.28076 -2.17432,-1.31055 -3.30615,-3.51465 -1.10205,-2.23388 -1.10205,-7.38671 v -15.69677 h 5.4209 v 15.6372 q 0,4.31884 1.22119,6.04639 1.25097,1.69775 4.34863,1.69775 3.87207,0 6.58252,-3.78272 v -19.59862 h 5.42089 v 27.40233 z m 32.30147,-41.60984 h 5.45068 v 41.60984 h -11.58642 q -6.07617,0 -9.70996,-3.84228 -3.604,-3.84228 -3.604,-10.30566 0,-6.04638 3.78271,-9.94824 3.8125,-3.90185 9.70996,-3.90185 2.74023,0 5.95703,1.16162 z m 0,36.96336 v -17.36474 q -2.53174,-1.28076 -5.12305,-1.28076 -4.05078,0 -6.46337,2.65088 -2.38282,2.65088 -2.38282,7.14844 0,4.22948 2.08496,6.52294 1.25098,1.37012 2.65088,1.84668 1.3999,0.47656 5.03369,0.47656 z m 16.57492,-34.2827 q 1.34033,0 2.29345,0.92334 0.95312,0.92334 0.95312,2.26368 0,1.31054 -0.95312,2.26366 -0.95312,0.95313 -2.29345,0.95313 -1.25098,0 -2.2041,-0.95313 -0.95313,-0.9829 -0.95313,-2.26366 0,-1.25098 0.95313,-2.20411 0.95312,-0.98291 2.2041,-0.98291 z m -2.68067,11.52685 h 5.4209 v 27.40233 h -5.4209 z m 10.3796,4.34864 10.18653,-10.00782 v 5.65918 h 8.66747 v 4.88477 h -8.66747 v 13.43309 q 0,4.70606 3.90185,4.70606 2.91894,0 6.16552,-1.96583 v 5.06348 q -3.12744,1.75733 -6.8208,1.75733 -3.72314,0 -6.1953,-2.17432 -0.77442,-0.65527 -1.28076,-1.45947 -0.50635,-0.83399 -0.86378,-2.14453 -0.32764,-1.34033 -0.32764,-5.06347 v -12.15234 h -4.76562 z m 38.22871,-4.40821 q 6.25488,0 10.39502,4.05078 4.14013,4.021 4.14013,10.12695 0,5.92724 -4.1997,9.85888 -4.19971,3.90185 -10.57372,3.90185 -6.16553,0 -10.30566,-3.96142 -4.14014,-3.99121 -4.14014,-9.94823 0,-6.01661 4.16992,-10.00782 4.19971,-4.02099 10.51415,-4.02099 z m -0.29785,4.88476 q -3.90185,0 -6.4038,2.56153 -2.50195,2.56152 -2.50195,6.52295 0,3.93163 2.56152,6.43359 2.56152,2.47216 6.58252,2.47216 3.9912,0 6.52294,-2.50195 2.56152,-2.53173 2.56152,-6.46338 0,-3.90185 -2.65087,-6.46337 -2.65089,-2.56153 -6.67188,-2.56153 z m 27.62521,-4.82519 v 6.28467 l 0.29786,-0.47656 q 3.93163,-6.34424 7.86327,-6.34424 3.06787,0 6.4038,3.09766 l -2.85936,4.76562 q -2.8296,-2.68067 -5.24219,-2.68067 -2.62109,0 -4.55713,2.50196 -1.90625,2.50195 -1.90625,5.92724 v 14.32665 h -5.45068 v -27.40233 z m 22.11495,-11.52685 q 1.34033,0 2.29346,0.92334 0.95312,0.92334 0.95312,2.26368 0,1.31054 -0.95312,2.26366 -0.95313,0.95313 -2.29346,0.95313 -1.25098,0 -2.2041,-0.95313 -0.95312,-0.9829 -0.95312,-2.26366 0,-1.25098 0.95312,-2.20411 0.95312,-0.98291 2.2041,-0.98291 z m -2.68066,11.52685 h 5.42089 v 27.40233 h -5.42089 z m 31.43769,10.93115 v 11.64599 q 0,1.3999 0.95313,1.3999 0.98291,0 3.06787,-1.45947 v 3.30615 q -1.84668,1.19141 -2.97851,1.6084 -1.10205,0.44677 -2.32325,0.44677 -3.48486,0 -4.11034,-2.74023 -3.45508,2.68066 -7.35693,2.68066 -2.85938,0 -4.76563,-1.87646 -1.90624,-1.90625 -1.90624,-4.76562 0,-2.59131 1.84668,-4.6167 1.87646,-2.05517 5.30175,-3.24658 l 6.93993,-2.38281 v -1.45947 q 0,-4.94434 -4.94433,-4.94434 -4.43799,0 -8.63769,4.58691 v -5.92724 q 3.15723,-3.72314 9.08447,-3.72314 4.43799,0 7.11865,2.32324 0.89355,0.74463 1.60839,1.9956 0.71485,1.22119 0.89356,2.47217 0.20849,1.22119 0.20849,4.67627 z m -5.33154,11.05029 v -8.13135 l -3.63378,1.39991 q -2.77002,1.10205 -3.93164,2.23388 -1.13184,1.10205 -1.13184,2.77002 0,1.69775 1.07227,2.77002 1.10205,1.07226 2.82959,1.07226 2.5913,0 4.7954,-2.11474 z m 33.44769,5.42089 V 510.1302 h 13.19483 q 5.95702,0 9.50146,3.21679 3.54443,3.2168 3.54443,8.6377 0,3.63378 -1.8169,6.43359 -1.81689,2.7998 -4.97411,4.08056 -3.15723,1.25098 -9.05469,1.25098 h -4.4082 v 18.04979 z m 12.15234,-36.36766 h -6.16552 v 13.01611 h 6.52294 q 3.63379,0 5.59962,-1.69775 1.96581,-1.72754 1.96581,-4.91455 0,-6.40381 -7.92285,-6.40381 z m 36.94796,36.36766 v -3.48486 q -1.72754,1.87646 -3.96143,2.91895 -2.2041,1.04247 -4.4082,1.04247 -2.59131,0 -4.79541,-1.28076 -2.17431,-1.31054 -3.30615,-3.51464 -1.10205,-2.23389 -1.10205,-7.38672 v -15.69677 h 5.4209 v 15.6372 q 0,4.31884 1.22119,6.04639 1.25097,1.69775 4.34863,1.69775 3.87206,0 6.58252,-3.78272 v -19.59862 h 5.42089 v 27.40233 z m 0.62548,-42.26512 -6.73144,8.93555 h -3.33593 l 4.02099,-8.93555 z m 13.14962,0.65528 h 5.42089 v 16.17334 q 3.51465,-2.56153 7.50586,-2.56153 5.2124,0 8.51855,3.93164 3.30615,3.93163 3.30615,10.09716 0,6.6123 -3.96142,10.54394 -3.93164,3.90185 -10.54394,3.90185 -2.65088,0 -5.59961,-0.56592 -2.91895,-0.56591 -4.64648,-1.42968 z m 5.42089,21.35595 v 14.833 q 2.77002,0.83398 5.68896,0.83398 3.60401,0 5.86768,-2.56152 2.29346,-2.56152 2.29346,-6.58252 0,-4.08056 -2.14454,-6.64209 -2.11474,-2.56152 -5.54003,-2.56152 -3.03809,0 -6.16553,2.68067 z m 26.40402,-21.35595 h 5.42091 v 41.60984 h -5.42091 z m 17.0217,2.68066 q 1.34033,0 2.29345,0.92334 0.95312,0.92334 0.95312,2.26368 0,1.31054 -0.95312,2.26366 -0.95312,0.95313 -2.29345,0.95313 -1.25098,0 -2.2041,-0.95313 -0.95313,-0.9829 -0.95313,-2.26366 0,-1.25098 0.95313,-2.20411 0.95312,-0.98291 2.2041,-0.98291 z m -2.68067,11.52685 h 5.4209 v 27.40233 h -5.4209 z m 34.77364,20.99853 v 5.36132 q -4.08056,1.51904 -7.98242,1.51904 -6.43359,0 -10.27587,-3.81249 -3.8125,-3.8125 -3.8125,-10.21631 0,-6.46337 3.72314,-10.4248 3.72314,-3.96142 9.79931,-3.96142 2.11475,0 3.78271,0.41699 1.69776,0.3872 4.16993,1.48925 v 5.77833 q -4.11036,-2.6211 -7.625,-2.6211 -3.66358,0 -6.0166,2.59131 -2.35302,2.56152 -2.35302,6.55273 0,4.19971 2.53173,6.67188 2.56152,2.47216 6.88037,2.47216 3.12744,0 7.17822,-1.81689 z m 24.34885,-10.06738 v 11.64599 q 0,1.3999 0.95313,1.3999 0.98291,0 3.06787,-1.45947 v 3.30615 q -1.84668,1.19141 -2.97852,1.6084 -1.10205,0.44677 -2.32324,0.44677 -3.48486,0 -4.11035,-2.74023 -3.45508,2.68066 -7.35693,2.68066 -2.85937,0 -4.76562,-1.87646 -1.90625,-1.90625 -1.90625,-4.76562 0,-2.59131 1.84668,-4.6167 1.87646,-2.05517 5.30176,-3.24658 l 6.93993,-2.38281 v -1.45948 q 0,-4.94433 -4.94433,-4.94433 -4.43799,0 -8.63769,4.58691 v -5.92724 q 3.15722,-3.72314 9.08447,-3.72314 4.43798,0 7.11865,2.32324 0.89355,0.74463 1.60839,1.9956 0.71484,1.22119 0.89355,2.47217 0.2085,1.22119 0.2085,4.67627 z m -5.33154,11.05028 v -8.13134 l -3.63378,1.39991 q -2.77002,1.10205 -3.93165,2.23388 -1.13183,1.10205 -1.13183,2.77002 0,1.69775 1.07227,2.77002 1.10205,1.07226 2.82958,1.07226 2.59131,0 4.79541,-2.11475 z m 33.83487,-36.18894 h 5.95704 v 41.60984 h -5.95704 z m 20.83417,14.20751 v 3.48486 q 3.63379,-4.02099 8.25049,-4.02099 2.56152,0 4.76562,1.34033 2.2041,1.31054 3.33594,3.63379 1.16161,2.29346 1.16161,7.29736 v 15.66698 h -5.42089 V 536.1922 q 0,-4.19971 -1.28076,-5.98682 -1.28076,-1.81689 -4.28906,-1.81689 -3.84228,0 -6.52295,3.84228 v 19.56884 h -5.54003 v -27.40233 z m 26.67209,0 v -1.63818 q 0,-6.6123 2.79981,-9.85889 2.82959,-3.24657 6.76122,-3.24657 1.69776,0 4.021,0.53613 v 5.30176 q -1.31055,-0.47657 -2.50195,-0.47657 -3.18702,0 -4.43799,1.69775 -1.22119,1.69776 -1.22119,6.04639 v 1.63818 h 4.88476 v 4.88477 h -4.88476 v 22.51756 h -5.4209 v -22.51756 h -3.93164 v -4.88477 z m 28.10176,-0.0596 q 6.25488,0 10.39502,4.05077 4.14013,4.021 4.14013,10.12695 0,5.92725 -4.19971,9.85889 -4.1997,3.90185 -10.57372,3.90185 -6.16553,0 -10.30566,-3.96143 -4.14014,-3.9912 -4.14014,-9.94823 0,-6.0166 4.16992,-10.00781 4.19971,-4.02099 10.51416,-4.02099 z m -0.29785,4.88476 q -3.90186,0 -6.40381,2.56153 -2.50195,2.56152 -2.50195,6.52294 0,3.93164 2.56152,6.43359 2.56152,2.47216 6.58252,2.47216 3.99121,0 6.52294,-2.50194 2.56152,-2.53174 2.56152,-6.46338 0,-3.90185 -2.65087,-6.46337 -2.65088,-2.56153 -6.67187,-2.56153 z m 27.62523,-4.8252 v 6.28467 l 0.29785,-0.47656 q 3.93164,-6.34423 7.86328,-6.34423 3.06787,0 6.40381,3.09765 l -2.85938,4.76562 q -2.82959,-2.68066 -5.24218,-2.68066 -2.6211,0 -4.55713,2.50195 -1.90625,2.50195 -1.90625,5.92725 v 14.32665 h -5.45068 v -27.40235 z m 41.77315,7.50586 v 19.89647 h -5.45068 v -15.24999 q 0,-4.55712 -1.22119,-6.34423 -1.22119,-1.8169 -4.25927,-1.8169 -1.69776,0 -3.12744,0.77442 -1.3999,0.77441 -3.2168,2.74023 v 19.89647 h -5.42089 v -27.40234 h 5.42089 v 3.604 q 4.14014,-4.14013 8.10156,-4.14013 5.2124,0 8.07177,4.94433 4.34864,-5.0039 9.08447,-5.0039 3.99121,0 6.55273,2.91894 2.59131,2.91894 2.59131,8.90576 v 16.17333 h -5.42089 v -16.2329 q 0,-3.42529 -1.39991,-5.24219 -1.3999,-1.81689 -4.02099,-1.81689 -3.36572,0 -6.28467,3.39551 z m 42.75603,3.4253 v 11.64598 q 0,1.39991 0.95313,1.39991 0.98291,0 3.06787,-1.45947 v 3.30615 q -1.84668,1.1914 -2.97851,1.60839 -1.10205,0.44678 -2.32325,0.44678 -3.48486,0 -4.11034,-2.74023 -3.45508,2.68066 -7.35693,2.68066 -2.85938,0 -4.76563,-1.87647 -1.90625,-1.90624 -1.90625,-4.76562 0,-2.59131 1.84668,-4.6167 1.87647,-2.05517 5.30175,-3.24657 l 6.93994,-2.38281 v -1.45948 q 0,-4.94433 -4.94433,-4.94433 -4.43799,0 -8.63769,4.58691 v -5.92724 q 3.15722,-3.72315 9.08447,-3.72315 4.43799,0 7.11864,2.32324 0.89356,0.74463 1.6084,1.99561 0.71485,1.22119 0.89356,2.47216 0.20849,1.2212 0.20849,4.67628 z m -5.33154,11.05028 v -8.13134 l -3.63379,1.3999 q -2.77001,1.10205 -3.93163,2.23388 -1.13184,1.10205 -1.13184,2.77002 0,1.69776 1.07227,2.77002 1.10205,1.07226 2.82959,1.07226 2.5913,0 4.7954,-2.11474 z m 11.27318,-17.6328 10.18651,-10.00781 v 5.65917 h 8.66747 v 4.88477 h -8.66747 v 13.4331 q 0,4.70605 3.90185,4.70605 2.91897,0 6.16557,-1.96582 v 5.06347 q -3.1275,1.75733 -6.82083,1.75733 -3.72315,0 -6.19532,-2.17432 -0.77441,-0.65527 -1.28076,-1.45947 -0.50635,-0.83398 -0.86377,-2.14453 -0.32763,-1.34033 -0.32763,-5.06347 v -12.15234 h -4.76562 z m 27.92305,-15.87548 q 1.34033,0 2.29343,0.92334 0.95317,0.92334 0.95317,2.26367 0,1.31054 -0.95317,2.26366 -0.9531,0.95313 -2.29343,0.95313 -1.251,0 -2.2041,-0.95313 -0.9531,-0.9829 -0.9531,-2.26366 0,-1.25098 0.9531,-2.20411 0.9531,-0.9829 2.2041,-0.9829 z m -2.68065,11.52684 h 5.42085 v 27.40233 h -5.42085 z m 11.66033,0 h 23.4111 l -14.5053,22.33887 h 14.5053 v 5.06346 h -24.00683 l 14.38628,-22.33885 h -13.79055 z m 46.1814,10.93116 v 11.64598 q 0,1.39991 0.9531,1.39991 0.98295,0 3.06787,-1.45947 v 3.30615 q -1.84665,1.1914 -2.97855,1.60839 -1.10205,0.44678 -2.3232,0.44678 -3.48487,0 -4.11037,-2.74023 -3.45503,2.68066 -7.3569,2.68066 -2.85938,0 -4.76565,-1.87647 -1.9062,-1.90624 -1.9062,-4.76562 0,-2.59131 1.84665,-4.6167 1.87642,-2.05517 5.30175,-3.24657 l 6.93997,-2.38281 v -1.45948 q 0,-4.94433 -4.94437,-4.94433 -4.43798,0 -8.63768,4.58691 v -5.92724 q 3.1572,-3.72315 9.08445,-3.72315 4.43798,0 7.11863,2.32324 0.89355,0.74463 1.60845,1.99561 0.71482,1.22119 0.89355,2.47216 0.2085,1.2212 0.2085,4.67628 z m -5.33153,11.05028 v -8.13134 l -3.63382,1.3999 q -2.77005,1.10205 -3.93165,2.23388 -1.13183,1.10205 -1.13183,2.77002 0,1.69776 1.07228,2.77002 1.10205,1.07226 2.8296,1.07226 2.59132,0 4.79542,-2.11474 z m 33.4035,-36.18895 h 5.4507 v 41.60984 h -11.58645 q -6.0762,0 -9.70995,-3.84228 -3.60397,-3.84228 -3.60397,-10.30566 0,-6.04637 3.7827,-9.94824 3.81247,-3.90185 9.70995,-3.90185 2.7402,0 5.95702,1.16162 z m 0,36.96336 v -17.36473 q -2.53177,-1.28076 -5.12302,-1.28076 -4.05083,0 -6.46343,2.65087 -2.38275,2.65088 -2.38275,7.14844 0,4.22949 2.08493,6.52294 1.251,1.37012 2.65087,1.84668 1.39988,0.47656 5.0337,0.47656 z m 30.9909,-11.82469 v 11.64598 q 0,1.39991 0.95318,1.39991 0.98287,0 3.0678,-1.45947 v 3.30615 q -1.84665,1.1914 -2.97848,1.60839 -1.10205,0.44678 -2.32327,0.44678 -3.4848,0 -4.1103,-2.74023 -3.4551,2.68066 -7.35698,2.68066 -2.85937,0 -4.76557,-1.87647 -1.90628,-1.90624 -1.90628,-4.76562 0,-2.59131 1.84665,-4.6167 1.8765,-2.05517 5.30175,-3.24657 l 6.93998,-2.38281 v -1.45948 q 0,-4.94433 -4.9443,-4.94433 -4.43805,0 -8.63775,4.58691 v -5.92724 q 3.15727,-3.72315 9.08452,-3.72315 4.43798,0 7.11863,2.32324 0.89355,0.74463 1.60837,1.99561 0.71483,1.22119 0.89355,2.47216 0.2085,1.2212 0.2085,4.67628 z m -5.33152,11.05028 v -8.13134 l -3.63375,1.3999 q -2.77005,1.10205 -3.93165,2.23388 -1.13183,1.10205 -1.13183,2.77002 0,1.69776 1.0722,2.77002 1.10205,1.07226 2.8296,1.07226 2.59133,0 4.79543,-2.11474 z m 51.31875,-36.18895 h 5.4507 v 41.60984 h -11.58645 q -6.07613,0 -9.70995,-3.84228 -3.60398,-3.84228 -3.60398,-10.30566 0,-6.04637 3.7827,-9.94824 3.81248,-3.90185 9.70995,-3.90185 2.7402,0 5.95703,1.16162 z m 0,36.96336 v -17.36473 q -2.5317,-1.28076 -5.12303,-1.28076 -4.05082,0 -6.46342,2.65087 -2.38275,2.65088 -2.38275,7.14844 0,4.22949 2.08492,6.52294 1.251,1.37012 2.65088,1.84668 1.39987,0.47656 5.0337,0.47656 z m 37.12672,-8.57812 h -19.27102 q 0.2085,3.93165 2.6211,6.25488 2.44237,2.32324 6.2847,2.32324 5.3613,0 9.88867,-3.33593 v 5.30176 q -2.502,1.66796 -4.97415,2.38281 -2.44237,0.71484 -5.74852,0.71484 -4.52738,0 -7.32713,-1.87646 -2.79982,-1.87647 -4.4976,-5.03369 -1.66792,-3.18701 -1.66792,-7.35693 0,-6.25488 3.54442,-10.15674 3.54443,-3.93163 9.20363,-3.93163 5.45062,0 8.69722,3.81249 3.2466,3.8125 3.2466,10.21631 z m -19.15185,-3.24657 h 13.79048 q -0.20843,-3.24659 -1.93598,-5.00391 -1.72755,-1.75732 -4.64647,-1.75732 -2.919,0 -4.79543,1.75732 -1.84672,1.75732 -2.4126,5.00391 z m 80.50814,6.82079 v 6.55273 q -6.55274,3.57422 -15.13086,3.57422 -6.96975,0 -11.82473,-2.7998 -4.85497,-2.79981 -7.68457,-7.71435 -2.82953,-4.91455 -2.82953,-10.6333 0,-9.08447 6.46335,-15.27978 6.49313,-6.19531 15.99458,-6.19531 6.55275,0 14.56496,3.42529 v 6.40381 q -7.29739,-4.16992 -14.26706,-4.16992 -7.14848,0 -11.88428,4.52734 -4.7061,4.49756 -4.7061,11.28857 0,6.85058 4.64655,11.25878 4.64648,4.4082 11.88428,4.4082 7.5654,0 14.77341,-4.64648 z m 20.6555,-17.81151 q 6.2549,0 10.395,4.05077 4.1401,4.021 4.1401,10.12695 0,5.92724 -4.1997,9.85889 -4.1997,3.90185 -10.5737,3.90185 -6.1655,0 -10.3057,-3.96143 -4.1401,-3.9912 -4.1401,-9.94823 0,-6.0166 4.17,-10.00781 4.1997,-4.02099 10.5141,-4.02099 z m -0.2979,4.88476 q -3.9018,0 -6.4038,2.56152 -2.502,2.56152 -2.502,6.52295 0,3.93163 2.5616,6.43359 2.5615,2.47216 6.5825,2.47216 3.9912,0 6.523,-2.50194 2.5615,-2.53174 2.5615,-6.46338 0,-3.90185 -2.6509,-6.46338 -2.6509,-2.56152 -6.6719,-2.56152 z m 27.238,-4.8252 v 3.48486 q 3.6338,-4.02099 8.2505,-4.02099 2.5615,0 4.7656,1.34034 2.2041,1.31054 3.3359,3.63378 1.1616,2.29346 1.1616,7.29736 v 15.66698 h -5.4208 v -15.60741 q 0,-4.1997 -1.2808,-5.98681 -1.2808,-1.8169 -4.289,-1.8169 -3.8423,0 -6.523,3.84229 v 19.56883 h -5.54 v -27.40234 z m 22.2044,4.34864 10.1865,-10.00781 v 5.65917 h 8.6674 v 4.88477 h -8.6674 v 13.4331 q 0,4.70605 3.9018,4.70605 2.919,0 6.1656,-1.96582 v 5.06347 q -3.1275,1.75733 -6.8208,1.75733 -3.7232,0 -6.1954,-2.17432 -0.7744,-0.65527 -1.2807,-1.45947 -0.5064,-0.83398 -0.8638,-2.14453 -0.3277,-1.34033 -0.3277,-5.06347 v -12.15234 h -4.7655 z m 42.339,6.58252 v 11.64598 q 0,1.39991 0.9531,1.39991 0.9829,0 3.0679,-1.45947 v 3.30615 q -1.8467,1.1914 -2.9785,1.60839 -1.1021,0.44678 -2.3232,0.44678 -3.4849,0 -4.1104,-2.74023 -3.4551,2.68066 -7.3569,2.68066 -2.8594,0 -4.7657,-1.87647 -1.9062,-1.90624 -1.9062,-4.76562 0,-2.59131 1.8467,-4.6167 1.8764,-2.05517 5.3017,-3.24657 l 6.9399,-2.38281 v -1.45948 q 0,-4.94433 -4.9443,-4.94433 -4.4379,0 -8.6376,4.58691 v -5.92724 q 3.1572,-3.72315 9.0844,-3.72315 4.438,0 7.1186,2.32324 0.8936,0.74463 1.6085,1.99561 0.7148,1.22119 0.8935,2.47216 0.2085,1.2212 0.2085,4.67628 z m -5.3316,11.05028 v -8.13134 l -3.6337,1.3999 q -2.7701,1.10205 -3.9317,2.23388 -1.1318,1.10205 -1.1318,2.77002 0,1.69776 1.0723,2.77002 1.102,1.07226 2.8296,1.07226 2.5912,0 4.7953,-2.11474 z m 13.7752,3.45508 v -5.83789 q 2.2934,1.6084 4.6763,2.62109 2.4126,0.98291 4.0507,0.98291 1.6978,0 2.9189,-0.83398 1.2213,-0.83399 1.2213,-1.99561 0,-1.1914 -0.8043,-1.96582 -0.7743,-0.80419 -3.3954,-2.29345 -5.2422,-2.91895 -6.8804,-4.97412 -1.6084,-2.08496 -1.6084,-4.52735 0,-3.15722 2.4423,-5.15282 2.4723,-1.99561 6.3443,-1.99561 4.021,0 8.2505,2.26368 v 5.36132 q -4.8252,-2.91894 -7.8931,-2.91894 -1.5786,0 -2.5615,0.68506 -0.9531,0.65526 -0.9531,1.75731 0,0.95313 0.8638,1.8169 0.8935,0.86377 3.0976,2.08496 l 1.9361,1.10205 q 6.8505,3.87207 6.8505,8.57812 0,3.36572 -2.6508,5.54004 -2.6211,2.14453 -6.7613,2.14453 -2.4424,0 -4.3486,-0.50635 -1.9062,-0.53613 -4.7954,-1.93603 z"
       id="text8"
       style="font-size:81.3333px;line-height:1.25;font-family:'Gill Sans MT';-inkscape-font-specification:'Gill Sans MT';text-align:center;letter-spacing:1.29px;word-spacing:0px;text-anchor:middle;white-space:pre;fill:#ffffff;stroke-width:0.75;opacity:1"
       aria-label="Auditoria Pública Informatizada de Contas" /><path
       id="path9"
       style="opacity:1;fill:#e15e16;stroke-width:2.19231;stroke-linecap:square;stroke-miterlimit:6.5;fill-opacity:1"
       d="M 105.17725 18.18457 A 6.0022864 6.0022864 0 0 0 99.174316 24.186035 A 6.0022864 6.0022864 0 0 0 105.17725 30.188965 A 6.0022864 6.0022864 0 0 0 111.17871 24.186035 A 6.0022864 6.0022864 0 0 0 105.17725 18.18457 z M 73.114746 24.74707 A 6.0022864 6.0022864 0 0 0 67.111816 30.748535 A 6.0022864 6.0022864 0 0 0 73.114746 36.751465 A 6.0022864 6.0022864 0 0 0 79.116211 30.748535 A 6.0022864 6.0022864 0 0 0 73.114746 24.74707 z M 44.989746 37.87207 A 6.0022864 6.0022864 0 0 0 38.986816 43.873535 A 6.0022864 6.0022864 0 0 0 44.989746 49.876465 A 6.0022864 6.0022864 0 0 0 50.991211 43.873535 A 6.0022864 6.0022864 0 0 0 44.989746 37.87207 z M 129.17725 42.74707 A 6.0022864 6.0022864 0 0 0 123.17432 48.748535 A 6.0022864 6.0022864 0 0 0 129.17725 54.751465 A 6.0022864 6.0022864 0 0 0 135.17871 48.748535 A 6.0022864 6.0022864 0 0 0 129.17725 42.74707 z M 106.11475 44.80957 A 6.0022864 6.0022864 0 0 0 100.11182 50.811035 A 6.0022864 6.0022864 0 0 0 106.11475 56.813965 A 6.0022864 6.0022864 0 0 0 112.11621 50.811035 A 6.0022864 6.0022864 0 0 0 106.11475 44.80957 z M 159.36475 44.80957 A 6.0022864 6.0022864 0 0 0 153.36182 50.811035 A 6.0022864 6.0022864 0 0 0 159.36475 56.813965 A 6.0022864 6.0022864 0 0 0 165.36621 50.811035 A 6.0022864 6.0022864 0 0 0 159.36475 44.80957 z M 87.177246 49.87207 A 6.0022864 6.0022864 0 0 0 81.174316 55.873535 A 6.0022864 6.0022864 0 0 0 87.177246 61.876465 A 6.0022864 6.0022864 0 0 0 93.178711 55.873535 A 6.0022864 6.0022864 0 0 0 87.177246 49.87207 z M 183.17725 54.93457 A 3.0022864 3.0022864 0 0 0 180.17432 57.936035 A 3.0022864 3.0022864 0 0 0 183.17725 60.938965 A 3.0022864 3.0022864 0 0 0 186.17871 57.936035 A 3.0022864 3.0022864 0 0 0 183.17725 54.93457 z M 64.114746 60.93457 A 6.0022864 6.0022864 0 0 0 58.111816 66.936035 A 6.0022864 6.0022864 0 0 0 64.114746 72.938965 A 6.0022864 6.0022864 0 0 0 70.116211 66.936035 A 6.0022864 6.0022864 0 0 0 64.114746 60.93457 z M 141.17725 61.87207 A 6.0022864 6.0022864 0 0 0 135.17432 67.873535 A 6.0022864 6.0022864 0 0 0 141.17725 73.876465 A 6.0022864 6.0022864 0 0 0 147.17871 67.873535 A 6.0022864 6.0022864 0 0 0 141.17725 61.87207 z M 165.17725 62.80957 A 6.0022864 6.0022864 0 0 0 159.17432 68.811035 A 6.0022864 6.0022864 0 0 0 165.17725 74.813965 A 6.0022864 6.0022864 0 0 0 171.17871 68.811035 A 6.0022864 6.0022864 0 0 0 165.17725 62.80957 z M 117.36475 64.87207 A 6.0022864 6.0022864 0 0 0 111.36182 70.873535 A 6.0022864 6.0022864 0 0 0 117.36475 76.876465 A 6.0022864 6.0022864 0 0 0 123.36621 70.873535 A 6.0022864 6.0022864 0 0 0 117.36475 64.87207 z M 195.17725 71.99707 A 3.0022864 3.0022864 0 0 0 192.17432 74.998535 A 3.0022864 3.0022864 0 0 0 195.17725 78.001465 A 3.0022864 3.0022864 0 0 0 198.17871 74.998535 A 3.0022864 3.0022864 0 0 0 195.17725 71.99707 z M 41.052246 74.80957 A 7.6897864 7.6897864 0 0 0 33.361816 82.498535 A 7.6897864 7.6897864 0 0 0 41.052246 90.188965 A 7.6897864 7.6897864 0 0 0 48.741211 82.498535 A 7.6897864 7.6897864 0 0 0 41.052246 74.80957 z M 93.177246 74.80957 A 6.0022864 6.0022864 0 0 0 87.174316 80.811035 A 6.0022864 6.0022864 0 0 0 93.177246 86.813965 A 6.0022864 6.0022864 0 0 0 99.178711 80.811035 A 6.0022864 6.0022864 0 0 0 93.177246 74.80957 z M 146.98975 81.74707 A 7.6897864 7.6897864 0 0 0 139.29932 89.436035 A 7.6897864 7.6897864 0 0 0 146.98975 97.126465 A 7.6897864 7.6897864 0 0 0 154.67871 89.436035 A 7.6897864 7.6897864 0 0 0 146.98975 81.74707 z M 79.114746 84.55957 A 1.8772864 1.8772864 0 0 0 77.236816 86.436035 A 1.8772864 1.8772864 0 0 0 79.114746 88.313965 A 1.8772864 1.8772864 0 0 0 80.991211 86.436035 A 1.8772864 1.8772864 0 0 0 79.114746 84.55957 z M 176.23975 84.74707 A 6.0022864 6.0022864 0 0 0 170.23682 90.748535 A 6.0022864 6.0022864 0 0 0 176.23975 96.751465 A 6.0022864 6.0022864 0 0 0 182.24121 90.748535 A 6.0022864 6.0022864 0 0 0 176.23975 84.74707 z M 118.30225 84.93457 A 7.6897864 7.6897864 0 0 0 110.61182 92.623535 A 7.6897864 7.6897864 0 0 0 118.30225 100.31396 A 7.6897864 7.6897864 0 0 0 125.99121 92.623535 A 7.6897864 7.6897864 0 0 0 118.30225 84.93457 z M 64.114746 88.68457 A 7.6897864 7.6897864 0 0 0 56.424316 96.373535 A 7.6897864 7.6897864 0 0 0 64.114746 104.06396 A 7.6897864 7.6897864 0 0 0 71.803711 96.373535 A 7.6897864 7.6897864 0 0 0 64.114746 88.68457 z M 205.11475 89.05957 A 6.0022864 6.0022864 0 0 0 199.11182 95.061035 A 6.0022864 6.0022864 0 0 0 205.11475 101.06396 A 6.0022864 6.0022864 0 0 0 211.11621 95.061035 A 6.0022864 6.0022864 0 0 0 205.11475 89.05957 z M 25.864746 91.87207 A 7.6897864 7.6897864 0 0 0 23.625 92.799316 L 23.625 106.32275 A 7.6897864 7.6897864 0 0 0 25.864746 107.25146 A 7.6897864 7.6897864 0 0 0 33.553711 99.561035 A 7.6897864 7.6897864 0 0 0 25.864746 91.87207 z M 91.302246 93.93457 A 7.6897864 7.6897864 0 0 0 83.611816 101.62354 A 7.6897864 7.6897864 0 0 0 91.302246 109.31396 A 7.6897864 7.6897864 0 0 0 98.991211 101.62354 A 7.6897864 7.6897864 0 0 0 91.302246 93.93457 z M 232.30225 100.87207 A 6.0022864 6.0022864 0 0 0 226.29932 106.87354 A 6.0022864 6.0022864 0 0 0 232.30225 112.87646 A 6.0022864 6.0022864 0 0 0 238.30371 106.87354 A 6.0022864 6.0022864 0 0 0 232.30225 100.87207 z M 44.052246 109.87207 A 7.6897864 7.6897864 0 0 0 36.361816 117.56104 A 7.6897864 7.6897864 0 0 0 44.052246 125.25146 A 7.6897864 7.6897864 0 0 0 51.741211 117.56104 A 7.6897864 7.6897864 0 0 0 44.052246 109.87207 z M 68.052246 113.80957 A 6.0022864 6.0022864 0 0 0 62.049316 119.81104 A 6.0022864 6.0022864 0 0 0 68.052246 125.81396 A 6.0022864 6.0022864 0 0 0 74.053711 119.81104 A 6.0022864 6.0022864 0 0 0 68.052246 113.80957 z M 59.239746 131.99707 A 6.0022864 6.0022864 0 0 0 53.236816 137.99854 A 6.0022864 6.0022864 0 0 0 59.239746 144.00146 A 6.0022864 6.0022864 0 0 0 65.241211 137.99854 A 6.0022864 6.0022864 0 0 0 59.239746 131.99707 z M 32.239746 134.80957 A 7.6897864 7.6897864 0 0 0 24.549316 142.49854 A 7.6897864 7.6897864 0 0 0 32.239746 150.18896 A 7.6897864 7.6897864 0 0 0 39.928711 142.49854 A 7.6897864 7.6897864 0 0 0 32.239746 134.80957 z M 35.052246 158.80957 A 7.6897864 7.6897864 0 0 0 27.361816 166.49854 A 7.6897864 7.6897864 0 0 0 35.052246 174.18896 A 7.6897864 7.6897864 0 0 0 42.741211 166.49854 A 7.6897864 7.6897864 0 0 0 35.052246 158.80957 z M 53.989746 161.80957 A 3.1897864 3.1897864 0 0 0 50.799316 164.99854 A 3.1897864 3.1897864 0 0 0 53.989746 168.18896 A 3.1897864 3.1897864 0 0 0 57.178711 164.99854 A 3.1897864 3.1897864 0 0 0 53.989746 161.80957 z M 23.625 172.09424 L 23.625 183.87744 A 6.0022864 6.0022864 0 0 0 29.241211 177.93604 A 6.0022864 6.0022864 0 0 0 23.625 172.09424 z M 43.114746 179.80957 A 6.0022864 6.0022864 0 0 0 37.111816 185.81104 A 6.0022864 6.0022864 0 0 0 43.114746 191.81396 A 6.0022864 6.0022864 0 0 0 49.116211 185.81104 A 6.0022864 6.0022864 0 0 0 43.114746 179.80957 z M 56.239746 180.55957 A 3.1897864 3.1897864 0 0 0 53.049316 183.74854 A 3.1897864 3.1897864 0 0 0 56.239746 186.93896 A 3.1897864 3.1897864 0 0 0 59.428711 183.74854 A 3.1897864 3.1897864 0 0 0 56.239746 180.55957 z M 31.114746 194.80957 A 7.6897864 7.6897864 0 0 0 23.625 202.01367 L 23.625 202.9834 A 7.6897864 7.6897864 0 0 0 31.114746 210.18896 A 7.6897864 7.6897864 0 0 0 38.803711 202.49854 A 7.6897864 7.6897864 0 0 0 31.114746 194.80957 z M 53.052246 198.74707 A 6.0022864 6.0022864 0 0 0 47.049316 204.74854 A 6.0022864 6.0022864 0 0 0 53.052246 210.75146 A 6.0022864 6.0022864 0 0 0 59.053711 204.74854 A 6.0022864 6.0022864 0 0 0 53.052246 198.74707 z M 43.302246 218.80957 A 6.0022864 6.0022864 0 0 0 37.299316 224.81104 A 6.0022864 6.0022864 0 0 0 43.302246 230.81396 A 6.0022864 6.0022864 0 0 0 49.303711 224.81104 A 6.0022864 6.0022864 0 0 0 43.302246 218.80957 z M 23.989746 231.93457 A 7.6897864 7.6897864 0 0 0 23.625 232.08545 L 23.625 247.16309 A 7.6897864 7.6897864 0 0 0 23.989746 247.31396 A 7.6897864 7.6897864 0 0 0 31.678711 239.62354 A 7.6897864 7.6897864 0 0 0 23.989746 231.93457 z M 64.114746 245.80957 A 6.0022864 6.0022864 0 0 0 58.111816 251.81104 A 6.0022864 6.0022864 0 0 0 64.114746 257.81396 A 6.0022864 6.0022864 0 0 0 70.116211 251.81104 A 6.0022864 6.0022864 0 0 0 64.114746 245.80957 z M 52.114746 259.12207 A 7.6897864 7.6897864 0 0 0 44.424316 266.81104 A 7.6897864 7.6897864 0 0 0 52.114746 274.50146 A 7.6897864 7.6897864 0 0 0 59.803711 266.81104 A 7.6897864 7.6897864 0 0 0 52.114746 259.12207 z M 86.052246 267.93457 A 6.0022864 6.0022864 0 0 0 80.049316 273.93604 A 6.0022864 6.0022864 0 0 0 86.052246 279.93896 A 6.0022864 6.0022864 0 0 0 92.053711 273.93604 A 6.0022864 6.0022864 0 0 0 86.052246 267.93457 z M 32.02002 273.08203 A 11.176908 11.176908 0 0 0 23.625 277.38574 L 23.625 291.13184 A 11.176908 11.176908 0 0 0 32.02002 295.43701 A 11.176908 11.176908 0 0 0 43.196777 284.25879 A 11.176908 11.176908 0 0 0 32.02002 273.08203 z M 79.114746 284.80957 A 7.6897864 7.6897864 0 0 0 71.424316 292.49854 A 7.6897864 7.6897864 0 0 0 79.114746 300.18896 A 7.6897864 7.6897864 0 0 0 86.803711 292.49854 A 7.6897864 7.6897864 0 0 0 79.114746 284.80957 z M 104.98975 284.80957 A 6.0022864 6.0022864 0 0 0 98.986816 290.81104 A 6.0022864 6.0022864 0 0 0 104.98975 296.81396 A 6.0022864 6.0022864 0 0 0 110.99121 290.81104 A 6.0022864 6.0022864 0 0 0 104.98975 284.80957 z M 59.02002 295.58203 A 11.176908 11.176908 0 0 0 47.843262 306.75879 A 11.176908 11.176908 0 0 0 59.02002 317.93701 A 11.176908 11.176908 0 0 0 70.196777 306.75879 A 11.176908 11.176908 0 0 0 59.02002 295.58203 z M 134.98975 301.87207 A 6.0022864 6.0022864 0 0 0 128.98682 307.87354 A 6.0022864 6.0022864 0 0 0 134.98975 313.87646 A 6.0022864 6.0022864 0 0 0 140.99121 307.87354 A 6.0022864 6.0022864 0 0 0 134.98975 301.87207 z M 23.625 303.91992 L 23.625 325.61719 A 11.176908 11.176908 0 0 0 33.071777 314.63379 A 11.176908 11.176908 0 0 0 23.625 303.91992 z M 109.11475 304.87207 A 7.6897864 7.6897864 0 0 0 101.42432 312.56104 A 7.6897864 7.6897864 0 0 0 109.11475 320.25146 A 7.6897864 7.6897864 0 0 0 116.80371 312.56104 A 7.6897864 7.6897864 0 0 0 109.11475 304.87207 z M 90.89502 317.33203 A 11.176908 11.176908 0 0 0 79.718262 328.50879 A 11.176908 11.176908 0 0 0 90.89502 339.68701 A 11.176908 11.176908 0 0 0 102.07178 328.50879 A 11.176908 11.176908 0 0 0 90.89502 317.33203 z M 136.11475 321.93457 A 7.6897864 7.6897864 0 0 0 128.42432 329.62354 A 7.6897864 7.6897864 0 0 0 136.11475 337.31396 A 7.6897864 7.6897864 0 0 0 143.80371 329.62354 A 7.6897864 7.6897864 0 0 0 136.11475 321.93457 z M 151.30225 331.87207 A 2.0647864 2.0647864 0 0 0 149.23682 333.93604 A 2.0647864 2.0647864 0 0 0 151.30225 336.00146 A 2.0647864 2.0647864 0 0 0 153.36621 333.93604 A 2.0647864 2.0647864 0 0 0 151.30225 331.87207 z M 60.89502 332.33203 A 11.176908 11.176908 0 0 0 49.718262 343.50879 A 11.176908 11.176908 0 0 0 60.89502 354.68701 A 11.176908 11.176908 0 0 0 72.071777 343.50879 A 11.176908 11.176908 0 0 0 60.89502 332.33203 z M 123.92725 339.93457 A 7.6897864 7.6897864 0 0 0 116.23682 347.62354 A 7.6897864 7.6897864 0 0 0 123.92725 355.31396 A 7.6897864 7.6897864 0 0 0 131.61621 347.62354 A 7.6897864 7.6897864 0 0 0 123.92725 339.93457 z M 96.212402 354.41455 A 13.239408 13.239408 0 0 0 82.97168 367.65381 A 13.239408 13.239408 0 0 0 96.212402 380.89307 A 13.239408 13.239408 0 0 0 109.45166 367.65381 A 13.239408 13.239408 0 0 0 96.212402 354.41455 z M 607.36377 361.76953 A 6.1144075 6.1144075 0 0 0 601.24951 367.88379 A 6.1144075 6.1144075 0 0 0 607.36377 373.99951 A 6.1144075 6.1144075 0 0 0 613.47803 367.88379 A 6.1144075 6.1144075 0 0 0 607.36377 361.76953 z M 56.02002 364.39453 A 11.176908 11.176908 0 0 0 44.843262 375.57129 A 11.176908 11.176908 0 0 0 56.02002 386.74951 A 11.176908 11.176908 0 0 0 67.196777 375.57129 A 11.176908 11.176908 0 0 0 56.02002 364.39453 z M 233.25586 367.96143 A 6.1144075 6.1144075 0 0 0 227.1416 374.07568 A 6.1144075 6.1144075 0 0 0 233.25586 380.18994 A 6.1144075 6.1144075 0 0 0 239.37012 374.07568 A 6.1144075 6.1144075 0 0 0 233.25586 367.96143 z M 136.27002 375.45703 A 11.176908 11.176908 0 0 0 125.09326 386.63379 A 11.176908 11.176908 0 0 0 136.27002 397.81201 A 11.176908 11.176908 0 0 0 147.44678 386.63379 A 11.176908 11.176908 0 0 0 136.27002 375.45703 z M 537.98877 376.86328 A 7.8956575 7.8956575 0 0 0 530.09326 384.75879 A 7.8956575 7.8956575 0 0 0 537.98877 392.65576 A 7.8956575 7.8956575 0 0 0 545.88428 384.75879 A 7.8956575 7.8956575 0 0 0 537.98877 376.86328 z M 323.01416 378.81006 A 3.1144075 3.1144075 0 0 0 319.8999 381.92432 A 3.1144075 3.1144075 0 0 0 323.01416 385.03857 A 3.1144075 3.1144075 0 0 0 326.12842 381.92432 A 3.1144075 3.1144075 0 0 0 323.01416 378.81006 z M 201.19336 381.83643 A 6.1144075 6.1144075 0 0 0 195.0791 387.95068 A 6.1144075 6.1144075 0 0 0 201.19336 394.06494 A 6.1144075 6.1144075 0 0 0 207.30762 387.95068 A 6.1144075 6.1144075 0 0 0 201.19336 381.83643 z M 278.20166 385.83691 A 3.1144075 3.1144075 0 0 0 275.0874 388.95117 A 3.1144075 3.1144075 0 0 0 278.20166 392.06543 A 3.1144075 3.1144075 0 0 0 281.31592 388.95117 A 3.1144075 3.1144075 0 0 0 278.20166 385.83691 z M 310.29492 389.18994 A 1.6228542 1.6228542 0 0 0 308.67188 390.81299 A 1.6228542 1.6228542 0 0 0 310.29492 392.43604 A 1.6228542 1.6228542 0 0 0 311.91797 390.81299 A 1.6228542 1.6228542 0 0 0 310.29492 389.18994 z M 236.25586 389.89893 A 6.1144075 6.1144075 0 0 0 230.1416 396.01318 A 6.1144075 6.1144075 0 0 0 236.25586 402.12744 A 6.1144075 6.1144075 0 0 0 242.37012 396.01318 A 6.1144075 6.1144075 0 0 0 236.25586 389.89893 z M 587.67627 390.45703 A 11.176908 11.176908 0 0 0 576.49951 401.63379 A 11.176908 11.176908 0 0 0 587.67627 412.81201 A 11.176908 11.176908 0 0 0 598.85303 401.63379 A 11.176908 11.176908 0 0 0 587.67627 390.45703 z M 103.1499 391.91455 A 15.114408 15.114408 0 0 0 88.03418 407.02881 A 15.114408 15.114408 0 0 0 103.1499 422.14307 A 15.114408 15.114408 0 0 0 118.26416 407.02881 A 15.114408 15.114408 0 0 0 103.1499 391.91455 z M 31.114746 394.87207 A 7.6897864 7.6897864 0 0 0 23.424316 402.56104 A 7.6897864 7.6897864 0 0 0 31.114746 410.25146 A 7.6897864 7.6897864 0 0 0 38.803711 402.56104 A 7.6897864 7.6897864 0 0 0 31.114746 394.87207 z M 182.02002 395.51953 A 11.176908 11.176908 0 0 0 170.84326 406.69629 A 11.176908 11.176908 0 0 0 182.02002 417.87451 A 11.176908 11.176908 0 0 0 193.19678 406.69629 A 11.176908 11.176908 0 0 0 182.02002 395.51953 z M 447.00586 395.71143 A 6.1144075 6.1144075 0 0 0 440.8916 401.82568 A 6.1144075 6.1144075 0 0 0 447.00586 407.93994 A 6.1144075 6.1144075 0 0 0 453.12012 401.82568 A 6.1144075 6.1144075 0 0 0 447.00586 395.71143 z M 373.13086 400.02393 A 3.1144075 3.1144075 0 0 0 370.0166 403.13818 A 3.1144075 3.1144075 0 0 0 373.13086 406.25244 A 3.1144075 3.1144075 0 0 0 376.24512 403.13818 A 3.1144075 3.1144075 0 0 0 373.13086 400.02393 z M 274.09131 401.74658 A 3.1144075 3.1144075 0 0 0 270.97705 404.8623 A 3.1144075 3.1144075 0 0 0 274.09131 407.97656 A 3.1144075 3.1144075 0 0 0 277.20557 404.8623 A 3.1144075 3.1144075 0 0 0 274.09131 401.74658 z M 310.021 403.4707 A 3.1144075 3.1144075 0 0 0 306.90674 406.58496 A 3.1144075 3.1144075 0 0 0 310.021 409.69922 A 3.1144075 3.1144075 0 0 0 313.13525 406.58496 A 3.1144075 3.1144075 0 0 0 310.021 403.4707 z M 223.27002 404.51953 A 11.176908 11.176908 0 0 0 212.09326 415.69629 A 11.176908 11.176908 0 0 0 223.27002 426.87451 A 11.176908 11.176908 0 0 0 234.44678 415.69629 A 11.176908 11.176908 0 0 0 223.27002 404.51953 z M 340.11768 404.79639 A 3.1144075 3.1144075 0 0 0 337.00342 407.91064 A 3.1144075 3.1144075 0 0 0 340.11768 411.0249 A 3.1144075 3.1144075 0 0 0 343.23193 407.91064 A 3.1144075 3.1144075 0 0 0 340.11768 404.79639 z M 512.67627 407.33203 A 7.3331575 7.3331575 0 0 0 505.34326 414.66504 A 7.3331575 7.3331575 0 0 0 512.67627 421.99951 A 7.3331575 7.3331575 0 0 0 520.00928 414.66504 A 7.3331575 7.3331575 0 0 0 512.67627 407.33203 z M 415.31836 409.39893 A 6.1144075 6.1144075 0 0 0 409.2041 415.51318 A 6.1144075 6.1144075 0 0 0 415.31836 421.62744 A 6.1144075 6.1144075 0 0 0 421.43262 415.51318 A 6.1144075 6.1144075 0 0 0 415.31836 409.39893 z M 150.25781 409.94531 A 15.114408 15.114408 0 0 0 135.14355 425.05957 A 15.114408 15.114408 0 0 0 150.25781 440.17383 A 15.114408 15.114408 0 0 0 165.37207 425.05957 A 15.114408 15.114408 0 0 0 150.25781 409.94531 z M 294.45117 411.22119 A 1.6228542 1.6228542 0 0 0 292.82813 412.84424 A 1.6228542 1.6228542 0 0 0 294.45117 414.46729 A 1.6228542 1.6228542 0 0 0 296.07422 412.84424 A 1.6228542 1.6228542 0 0 0 294.45117 411.22119 z M 329.32617 412.43994 A 1.6228542 1.6228542 0 0 0 327.70313 414.06299 A 1.6228542 1.6228542 0 0 0 329.32617 415.68604 A 1.6228542 1.6228542 0 0 0 330.94922 414.06299 A 1.6228542 1.6228542 0 0 0 329.32617 412.43994 z M 562.36377 419.51953 A 11.176908 11.176908 0 0 0 551.18701 430.69629 A 11.176908 11.176908 0 0 0 562.36377 441.87451 A 11.176908 11.176908 0 0 0 573.54053 430.69629 A 11.176908 11.176908 0 0 0 562.36377 419.51953 z M 267.19336 421.77393 A 7.8019075 7.8019075 0 0 0 259.3916 429.57568 A 7.8019075 7.8019075 0 0 0 267.19336 437.37744 A 7.8019075 7.8019075 0 0 0 274.99512 429.57568 A 7.8019075 7.8019075 0 0 0 267.19336 421.77393 z M 384.00586 422.71143 A 6.1144075 6.1144075 0 0 0 377.8916 428.82568 A 6.1144075 6.1144075 0 0 0 384.00586 434.93994 A 6.1144075 6.1144075 0 0 0 390.12012 428.82568 A 6.1144075 6.1144075 0 0 0 384.00586 422.71143 z M 306.00586 424.58643 A 6.1144075 6.1144075 0 0 0 299.8916 430.70068 A 6.1144075 6.1144075 0 0 0 306.00586 436.81494 A 6.1144075 6.1144075 0 0 0 312.12012 430.70068 A 6.1144075 6.1144075 0 0 0 306.00586 424.58643 z M 82.864746 425.05957 A 7.6897864 7.6897864 0 0 0 75.174316 432.74854 A 7.6897864 7.6897864 0 0 0 82.864746 440.43896 A 7.6897864 7.6897864 0 0 0 90.553711 432.74854 A 7.6897864 7.6897864 0 0 0 82.864746 425.05957 z M 471.14502 426.64453 A 11.176908 11.176908 0 0 0 459.96826 437.82129 A 11.176908 11.176908 0 0 0 471.14502 448.99951 A 11.176908 11.176908 0 0 0 482.32178 437.82129 A 11.176908 11.176908 0 0 0 471.14502 426.64453 z M 350.25586 427.39893 A 6.1144075 6.1144075 0 0 0 344.1416 433.51318 A 6.1144075 6.1144075 0 0 0 350.25586 439.62744 A 6.1144075 6.1144075 0 0 0 356.37012 433.51318 A 6.1144075 6.1144075 0 0 0 350.25586 427.39893 z M 196.92627 429.83203 A 15.114408 15.114408 0 0 0 181.81201 444.94629 A 15.114408 15.114408 0 0 0 196.92627 460.06201 A 15.114408 15.114408 0 0 0 212.04053 444.94629 A 15.114408 15.114408 0 0 0 196.92627 429.83203 z M 369.35742 435.22119 A 1.6228542 1.6228542 0 0 0 367.73438 436.84424 A 1.6228542 1.6228542 0 0 0 369.35742 438.46729 A 1.6228542 1.6228542 0 0 0 370.98047 436.84424 A 1.6228542 1.6228542 0 0 0 369.35742 435.22119 z M 528.42627 439.95703 A 15.114408 15.114408 0 0 0 513.31201 455.07129 A 15.114408 15.114408 0 0 0 515.00391 461.3877 L 542.10645 461.3877 A 15.114408 15.114408 0 0 0 543.54053 455.07129 A 15.114408 15.114408 0 0 0 528.42627 439.95703 z M 248.02002 443.33203 A 11.176908 11.176908 0 0 0 236.84326 454.50879 A 11.176908 11.176908 0 0 0 239.63086 461.3877 L 256.81641 461.3877 A 11.176908 11.176908 0 0 0 259.19678 454.50879 A 11.176908 11.176908 0 0 0 248.02002 443.33203 z M 134.82129 444.31055 A 11.176908 11.176908 0 0 0 123.64453 455.4873 A 11.176908 11.176908 0 0 0 125.45361 461.3877 L 144.18896 461.3877 A 11.176908 11.176908 0 0 0 145.99805 455.4873 A 11.176908 11.176908 0 0 0 134.82129 444.31055 z M 434.39502 445.20703 A 11.176908 11.176908 0 0 0 423.21826 456.38379 A 11.176908 11.176908 0 0 0 424.55859 461.3877 L 444.36914 461.3877 A 11.176908 11.176908 0 0 0 445.57178 456.38379 A 11.176908 11.176908 0 0 0 434.39502 445.20703 z M 302.39502 450.08203 A 11.176908 11.176908 0 0 0 291.21826 461.25879 A 11.176908 11.176908 0 0 0 291.25342 461.3877 L 313.55713 461.3877 A 11.176908 11.176908 0 0 0 313.57178 461.25879 A 11.176908 11.176908 0 0 0 302.39502 450.08203 z M 348.33252 450.08203 A 11.176908 11.176908 0 0 0 337.15576 461.25879 A 11.176908 11.176908 0 0 0 337.19092 461.3877 L 359.49463 461.3877 A 11.176908 11.176908 0 0 0 359.50928 461.25879 A 11.176908 11.176908 0 0 0 348.33252 450.08203 z M 394.27002 451.20703 A 11.176908 11.176908 0 0 0 383.35986 461.3877 L 405.18018 461.3877 A 11.176908 11.176908 0 0 0 394.27002 451.20703 z " /><path
       id="rect124"
       style="opacity:1;fill:#000000;stroke-width:1.5;stroke-linecap:square;stroke-miterlimit:6.5;fill-opacity:1"
       d="m 724.1118,103.3374 -31.5,268.67725 h 55.4502 l 31.5,-268.67725 z m 118.5,0 -6.0879,51.92139 h 55.4502 l 6.0879,-51.92139 z m -553.5,3 -142.5,265.67725 h 50.9502 l 33.2622,-62.01416 h 119.9312 l 17.8564,62.01416 h 56.9502 l -76.5,-265.67725 h -9 z m 742.169,1.93067 v 0.006 c -50.7133,0.14041 -91.5,43.40218 -91.5,97.125 0,73.31316 40.7867,97.04953 91.5,97.12646 v 0.003 h 0.2461 19.6787 46.9629 l 4.7783,-40.76367 h -49.6392 -11.4214 -0.1421 v -10e-4 c -29.4298,-0.0446 -53.0991,-13.8192 -53.0991,-56.36425 0,-31.1764 23.6693,-56.28276 53.0991,-56.36426 v -0.003 h 0.1421 11.4214 68.8052 l 4.7783,-40.76367 h -75.6855 -19.6787 z m -547.169,52.5 -31.5,269.74658 h 58.4502 l 8.8154,-75.48633 h 52.0328 4.0415 4.8706 c 53.8102,0 97.1294,-43.31917 97.1294,-97.12939 0,-53.81023 -43.3192,-97.13086 -97.1294,-97.13086 h -4.8706 -4.0415 -29.3482 -30 z m -175.251,3.73974 26.9473,93.58301 h -77.1416 z m 525.4776,9.40137 -23.2266,198.10547 H 866.562 L 889.7886,173.90918 Z M 537.8379,201.2168 h 21.9551 2.4521 2.9546 c 32.6478,0 58.9307,26.28432 58.9307,58.93213 0,32.64781 -26.2829,58.93066 -58.9307,58.93066 h -2.9546 -2.4521 -35.7173 z" /></g></svg>
