<?xml version="1.0" encoding="UTF-8"?>
<svg id="Camada_1" xmlns="http://www.w3.org/2000/svg" version="1.1" viewBox="0 0 727.5 495">
  <!-- Generator: Adobe Illustrator 29.6.0, SVG Export Plug-In . SVG Version: 2.1.1 Build 142)  -->
  <defs>
    <style>
      .st0 {
        fill: #fff;
      }
    </style>
  </defs>
  <path class="st0" d="M61.86,225.84c15.54,9.32,28.73,15.85,39.57,19.6,10.84,3.75,21.42,5.62,31.75,5.62s18.81-2.24,25.14-6.73c6.32-4.49,9.48-10.25,9.48-17.3,0-10.11-11.25-21.47-33.75-34.08-3.6-2.04-6.38-3.63-8.35-4.77l-17.05-9.37c-16.59-9.2-28.88-19.6-36.88-31.18-8-11.59-12-24.71-12-39.36,0-19.88,7.65-36.18,22.96-48.9,15.31-12.72,35.08-19.08,59.32-19.08,8.93,0,18.61,1.02,29.05,3.07,10.44,2.04,22.03,5.23,34.79,9.54v57.94c-12.18-7.5-23.72-13.29-34.62-17.38-10.9-4.09-20.18-6.13-27.83-6.13-8.47,0-15.13,1.79-20.01,5.37s-7.31,8.43-7.31,14.57c0,4.32,1.45,8.35,4.35,12.1,2.9,3.75,7.25,7.16,13.05,10.22l29.57,16.02c24.7,13.41,41.31,25.79,49.84,37.15,8.52,11.36,12.79,24.82,12.79,40.38,0,24.08-8.38,43.54-25.14,58.36-16.76,14.82-39,22.24-66.71,22.24-9.39,0-19.6-.97-30.62-2.9-11.02-1.93-23.14-4.94-36.36-9.03l-5.04-65.94Z"/>
  <path class="st0" d="M386.21,289.09c-9.42-11.97-14.58-26.32-15.06-41.11h-71.63v-49.93h81.08l1.9-7.84v-43.83h-82.98v-45.58h96.89v-52.01h-155.34v252.24h156.74v-.28c-4.25-3.38-8.14-7.28-11.59-11.66Z"/>
  <path class="st0" d="M428.56,215.69v-42.49h-13.25v-52.63h13.25v-52.21c-7.15,7.89-12.44,17.6-15.09,28.51l-31.23,129.01c-9.97,41.17,21.22,80.81,63.58,80.81h46.86c-36.9-13.97-64.12-48.59-64.12-91Z"/>
  <path class="st0" d="M613.7,47.83c6.5,5.93,10.62,14.53,10.62,24.08,0,17.77-14.27,32.32-31.71,32.32s-32.02-14.54-32.02-32.32c0-10.08,4.7-19.12,11.94-25.06h-95.48c-10.85,0-21.18,2.68-30.31,7.46h34.77v66.26h55.48v52.63h-55.48v42.49c0,25.36,20.61,45.02,47.56,45.02h7.93v45.98h28.99V120.38h52.95v165.45c7.46-8.01,12.99-17.96,15.7-29.17l31.23-129.01c9.05-37.37-15.82-73.47-52.16-79.82Z"/>
  <g>
    <path class="st0" d="M62.35,381.66l4.58-1.57c.58,2.04,1.52,3.58,2.82,4.65,1.3,1.07,2.9,1.6,4.79,1.6s3.32-.55,4.42-1.66c1.1-1.1,1.64-2.59,1.64-4.45,0-1.5-.45-2.73-1.34-3.69s-2.87-2.07-5.94-3.33c-3.55-1.46-6.06-3.01-7.52-4.67-1.46-1.66-2.18-3.73-2.18-6.2,0-2.91.96-5.31,2.9-7.19,1.93-1.88,4.43-2.82,7.48-2.82,2.07,0,3.95.47,5.65,1.41s3.24,2.36,4.64,4.27l-3.55,3.5c-1.08-1.49-2.18-2.59-3.29-3.32-1.11-.73-2.26-1.09-3.45-1.09-1.52,0-2.75.43-3.69,1.3-.94.87-1.41,2-1.41,3.39,0,1.11.3,2.07.92,2.89.61.81,1.59,1.56,2.94,2.23,1.21.6,2.63,1.23,4.28,1.91,1.64.68,2.64,1.13,2.98,1.35,2.22,1.44,3.76,2.89,4.6,4.36.85,1.46,1.27,3.33,1.27,5.6,0,3.26-1.04,5.91-3.12,7.97-2.08,2.06-4.78,3.09-8.08,3.09s-5.88-.85-8.07-2.54c-2.19-1.69-3.61-4.02-4.26-7Z"/>
    <path class="st0" d="M115.5,385.27c-1.29,2.02-2.75,3.51-4.4,4.47s-3.57,1.44-5.74,1.44c-3.74,0-6.68-1.32-8.82-3.97-2.14-2.65-3.21-6.29-3.21-10.94s1.06-8.22,3.17-10.9,4.96-4.02,8.55-4.02,6.51,1.35,8.58,4.05c2.07,2.7,3.11,6.45,3.11,11.24v.49h-18.13v.61c0,2.65.64,4.81,1.93,6.48,1.28,1.68,2.9,2.51,4.86,2.51,1.3,0,2.46-.33,3.48-.99,1.02-.66,1.99-1.71,2.91-3.15l3.71,2.65ZM98.57,373.62h13.22c-.24-2.58-.92-4.57-2.05-5.95-1.14-1.39-2.64-2.08-4.52-2.08s-3.42.7-4.57,2.09-1.84,3.37-2.08,5.94Z"/>
    <path class="st0" d="M144.16,389.31c-.86.63-1.95,1.1-3.27,1.43-1.31.33-2.77.49-4.37.49-4.35,0-7.79-1.34-10.31-4.02-2.52-2.68-3.78-6.33-3.78-10.94s1.24-8.19,3.73-10.9c2.49-2.71,5.81-4.06,9.96-4.06,1.54,0,2.99.18,4.36.54,1.37.36,2.59.88,3.68,1.57v5.54c-1.04-1-2.19-1.76-3.48-2.27s-2.65-.76-4.11-.76c-2.71,0-4.84.91-6.39,2.74s-2.32,4.34-2.32,7.55.81,5.81,2.43,7.66c1.62,1.85,3.84,2.77,6.66,2.77,1.35,0,2.6-.25,3.76-.76s2.31-1.31,3.45-2.41v5.82Z"/>
    <path class="st0" d="M152.2,390.42v-28.28h5.05c-.02,1.07-.06,2.19-.14,3.38-.08,1.19-.19,2.51-.33,3.97.94-2.65,2.02-4.6,3.24-5.86,1.22-1.26,2.64-1.89,4.25-1.89.39,0,.81.05,1.26.15.45.1.97.26,1.59.48l-1.2,5.87c-.47-.24-.9-.41-1.29-.52-.39-.11-.78-.16-1.17-.16-1.83,0-3.29.91-4.38,2.72-1.09,1.82-1.63,4.27-1.63,7.38v12.75h-5.24Z"/>
    <path class="st0" d="M192.04,385.27c-1.28,2.02-2.75,3.51-4.4,4.47-1.65.96-3.56,1.44-5.74,1.44-3.74,0-6.68-1.32-8.82-3.97-2.14-2.65-3.21-6.29-3.21-10.94s1.06-8.22,3.17-10.9,4.96-4.02,8.55-4.02,6.51,1.35,8.58,4.05,3.11,6.45,3.11,11.24v.49h-18.13v.61c0,2.65.64,4.81,1.93,6.48,1.29,1.68,2.9,2.51,4.86,2.51,1.3,0,2.46-.33,3.47-.99,1.02-.66,1.99-1.71,2.91-3.15l3.71,2.65ZM175.11,373.62h13.22c-.23-2.58-.92-4.57-2.05-5.95s-2.64-2.08-4.52-2.08-3.42.7-4.57,2.09c-1.15,1.39-1.84,3.37-2.08,5.94Z"/>
    <path class="st0" d="M207.62,353.15v8.99h5.21v3.99h-5.21v24.28h-5.24v-24.28h-5.24v-3.99h5.24v-8.99h5.24Z"/>
    <path class="st0" d="M234.62,390.42c.05-1.08.12-2.14.22-3.17.1-1.03.23-2.06.39-3.08-.83,2.27-1.95,4.01-3.36,5.21-1.41,1.21-3.03,1.81-4.86,1.81-3.09,0-5.56-1.33-7.43-3.99-1.87-2.66-2.81-6.21-2.81-10.64s.94-7.96,2.83-10.64c1.89-2.68,4.36-4.02,7.41-4.02,1.74,0,3.28.48,4.62,1.44,1.35.96,2.42,2.35,3.22,4.17-.21-.88-.36-1.76-.47-2.65s-.18-1.8-.21-2.72h5.24v28.28h-4.79ZM228.16,386.61c1.86,0,3.35-.88,4.47-2.65,1.12-1.77,1.68-4.16,1.68-7.16s-.55-5.34-1.66-7.1c-1.1-1.76-2.57-2.64-4.4-2.64s-3.36.88-4.47,2.63c-1.12,1.75-1.68,4.13-1.68,7.12s.55,5.39,1.67,7.16,2.58,2.65,4.39,2.65Z"/>
    <path class="st0" d="M249.75,390.42v-28.28h5.05c-.02,1.07-.06,2.19-.14,3.38-.08,1.19-.19,2.51-.33,3.97.94-2.65,2.02-4.6,3.24-5.86,1.22-1.26,2.64-1.89,4.25-1.89.39,0,.81.05,1.26.15.45.1.97.26,1.59.48l-1.2,5.87c-.47-.24-.9-.41-1.29-.52-.39-.11-.78-.16-1.17-.16-1.83,0-3.29.91-4.38,2.72-1.09,1.82-1.63,4.27-1.63,7.38v12.75h-5.24Z"/>
    <path class="st0" d="M276.27,355.99c0,1.02-.38,1.85-1.13,2.49-.75.64-1.73.96-2.94.96s-2.15-.32-2.89-.95c-.74-.63-1.1-1.47-1.1-2.5s.36-1.86,1.09-2.49c.73-.63,1.7-.94,2.9-.94s2.2.31,2.95.94c.74.63,1.12,1.46,1.12,2.49ZM269.62,390.42v-27.36h5.24v27.36h-5.24Z"/>
    <path class="st0" d="M300.66,390.42c.05-1.08.12-2.14.22-3.17.1-1.03.23-2.06.39-3.08-.83,2.27-1.95,4.01-3.36,5.21-1.41,1.21-3.03,1.81-4.86,1.81-3.09,0-5.56-1.33-7.43-3.99-1.87-2.66-2.81-6.21-2.81-10.64s.94-7.96,2.83-10.64c1.89-2.68,4.36-4.02,7.41-4.02,1.74,0,3.28.48,4.62,1.44,1.35.96,2.42,2.35,3.22,4.17-.21-.88-.36-1.76-.47-2.65s-.18-1.8-.21-2.72h5.24v28.28h-4.79ZM294.2,386.61c1.86,0,3.35-.88,4.47-2.65,1.12-1.77,1.68-4.16,1.68-7.16s-.55-5.34-1.66-7.1c-1.1-1.76-2.57-2.64-4.4-2.64s-3.36.88-4.47,2.63c-1.12,1.75-1.68,4.13-1.68,7.12s.55,5.39,1.67,7.16,2.58,2.65,4.39,2.65Z"/>
    <path class="st0" d="M332.96,390.42v-37.27h27.59v4.86h-22.26v10.57h20.97v4.72h-20.97v12.21h22.26v4.91h-27.59Z"/>
    <path class="st0" d="M367.64,390.42l8.64-14.42-8.27-13.86h6.11l5.54,9.82,5.61-9.82h5.59l-8.08,13.41,8.95,14.87h-6.15l-6.06-10.73-6.2,10.73h-5.68Z"/>
    <path class="st0" d="M417.81,385.27c-1.28,2.02-2.75,3.51-4.4,4.47-1.65.96-3.56,1.44-5.74,1.44-3.74,0-6.68-1.32-8.82-3.97-2.14-2.65-3.21-6.29-3.21-10.94s1.06-8.22,3.17-10.9,4.96-4.02,8.55-4.02,6.51,1.35,8.58,4.05,3.11,6.45,3.11,11.24v.49h-18.13v.61c0,2.65.64,4.81,1.93,6.48,1.29,1.68,2.9,2.51,4.86,2.51,1.3,0,2.46-.33,3.47-.99,1.02-.66,1.99-1.71,2.91-3.15l3.71,2.65ZM400.88,373.62h13.22c-.23-2.58-.92-4.57-2.05-5.95s-2.64-2.08-4.52-2.08-3.42.7-4.57,2.09c-1.15,1.39-1.84,3.37-2.08,5.94Z"/>
    <path class="st0" d="M446.47,389.31c-.86.63-1.95,1.1-3.26,1.43-1.32.33-2.77.49-4.37.49-4.35,0-7.79-1.34-10.31-4.02-2.52-2.68-3.78-6.33-3.78-10.94s1.24-8.19,3.73-10.9c2.49-2.71,5.81-4.06,9.96-4.06,1.53,0,2.99.18,4.36.54,1.37.36,2.6.88,3.68,1.57v5.54c-1.03-1-2.19-1.76-3.48-2.27-1.28-.51-2.65-.76-4.11-.76-2.71,0-4.84.91-6.39,2.74-1.55,1.82-2.33,4.34-2.33,7.55s.81,5.81,2.43,7.66c1.62,1.85,3.84,2.77,6.66,2.77,1.35,0,2.6-.25,3.76-.76,1.16-.51,2.31-1.31,3.45-2.41v5.82Z"/>
    <path class="st0" d="M475.62,379.36c0,3.74-.93,6.65-2.78,8.72-1.86,2.08-4.46,3.11-7.81,3.11s-5.93-1.04-7.79-3.11c-1.86-2.07-2.78-4.98-2.78-8.72v-17.21h5.24v16.98c0,2.47.45,4.33,1.34,5.55.89,1.23,2.22,1.84,3.99,1.84s3.12-.61,4.02-1.84c.89-1.23,1.34-3.08,1.34-5.55v-16.98h5.24v17.21Z"/>
    <path class="st0" d="M492.26,353.15v8.99h5.21v3.99h-5.21v24.28h-5.24v-24.28h-5.24v-3.99h5.24v-8.99h5.24Z"/>
    <path class="st0" d="M510.26,355.99c0,1.02-.38,1.85-1.13,2.49-.75.64-1.73.96-2.94.96s-2.15-.32-2.89-.95c-.73-.63-1.1-1.47-1.1-2.5s.37-1.86,1.09-2.49c.73-.63,1.7-.94,2.9-.94s2.21.31,2.95.94c.74.63,1.12,1.46,1.12,2.49ZM503.61,390.42v-27.36h5.24v27.36h-5.24Z"/>
    <path class="st0" d="M524.87,390.42l-9.04-28.28h5.61l4.13,14.47c.34,1.19.69,2.49,1.04,3.91.35,1.42.72,2.91,1.09,4.47l.49-2.02c.83-3.41,1.37-5.54,1.62-6.37l4.23-14.47h5.43l-9.04,28.28h-5.57Z"/>
    <path class="st0" d="M562.15,390.42c.05-1.08.12-2.14.22-3.17.1-1.03.23-2.06.39-3.08-.83,2.27-1.95,4.01-3.36,5.21-1.41,1.21-3.03,1.81-4.86,1.81-3.08,0-5.56-1.33-7.43-3.99-1.87-2.66-2.8-6.21-2.8-10.64s.94-7.96,2.83-10.64c1.89-2.68,4.36-4.02,7.41-4.02,1.74,0,3.28.48,4.63,1.44,1.35.96,2.42,2.35,3.22,4.17-.2-.88-.36-1.76-.47-2.65s-.18-1.8-.21-2.72h5.24v28.28h-4.79ZM555.69,386.61c1.86,0,3.36-.88,4.47-2.65s1.68-4.16,1.68-7.16-.55-5.34-1.66-7.1-2.57-2.64-4.4-2.64-3.35.88-4.47,2.63c-1.12,1.75-1.68,4.13-1.68,7.12s.55,5.39,1.67,7.16c1.11,1.77,2.57,2.65,4.39,2.65Z"/>
    <path class="st0" d="M609.33,390.42c.03-.92.11-1.9.22-2.94s.26-2.14.43-3.31c-.81,2.25-1.93,3.99-3.36,5.2-1.43,1.21-3.06,1.82-4.91,1.82-3.09,0-5.56-1.33-7.43-3.99-1.87-2.66-2.81-6.21-2.81-10.64s.94-7.96,2.83-10.64c1.89-2.68,4.36-4.02,7.41-4.02,1.74,0,3.28.48,4.63,1.44,1.35.96,2.42,2.35,3.22,4.17-.22-.78-.38-1.67-.48-2.67s-.15-2.16-.15-3.49v-8.81h5.19v37.86h-4.79ZM602.91,386.61c1.88,0,3.37-.88,4.49-2.65,1.11-1.77,1.67-4.16,1.67-7.16s-.55-5.32-1.67-7.09c-1.11-1.77-2.59-2.65-4.44-2.65s-3.36.88-4.47,2.63c-1.12,1.75-1.68,4.13-1.68,7.12s.56,5.37,1.68,7.15c1.12,1.78,2.6,2.67,4.43,2.67Z"/>
    <path class="st0" d="M644.33,385.27c-1.28,2.02-2.75,3.51-4.4,4.47-1.65.96-3.56,1.44-5.74,1.44-3.74,0-6.68-1.32-8.82-3.97-2.14-2.65-3.21-6.29-3.21-10.94s1.06-8.22,3.17-10.9,4.96-4.02,8.55-4.02,6.51,1.35,8.58,4.05,3.11,6.45,3.11,11.24v.49h-18.13v.61c0,2.65.64,4.81,1.93,6.48,1.29,1.68,2.9,2.51,4.86,2.51,1.3,0,2.46-.33,3.47-.99,1.02-.66,1.99-1.71,2.91-3.15l3.71,2.65ZM627.39,373.62h13.22c-.23-2.58-.92-4.57-2.05-5.95s-2.64-2.08-4.52-2.08-3.42.7-4.57,2.09c-1.15,1.39-1.84,3.37-2.08,5.94Z"/>
  </g>
  <g>
    <path class="st0" d="M79.23,411.02v32.36h-5.33v-32.36h-11.84v-4.91h28.96v4.91h-11.79Z"/>
    <path class="st0" d="M113.12,438.24c-1.28,2.02-2.75,3.51-4.4,4.47-1.65.96-3.56,1.44-5.74,1.44-3.74,0-6.68-1.32-8.82-3.97-2.14-2.65-3.21-6.29-3.21-10.94s1.06-8.22,3.17-10.9,4.96-4.02,8.55-4.02,6.51,1.35,8.58,4.05,3.11,6.45,3.11,11.24v.49h-18.13v.61c0,2.65.64,4.81,1.93,6.48,1.29,1.68,2.9,2.51,4.86,2.51,1.3,0,2.46-.33,3.47-.99,1.02-.66,1.99-1.71,2.91-3.15l3.71,2.65ZM96.19,426.59h13.22c-.23-2.58-.92-4.57-2.05-5.95s-2.64-2.08-4.52-2.08-3.42.7-4.57,2.09c-1.15,1.39-1.84,3.37-2.08,5.94Z"/>
    <path class="st0" d="M139.43,442.28c-.86.63-1.95,1.1-3.26,1.43-1.32.33-2.77.49-4.37.49-4.35,0-7.79-1.34-10.31-4.02-2.52-2.68-3.78-6.33-3.78-10.94s1.24-8.19,3.73-10.9c2.49-2.71,5.81-4.06,9.96-4.06,1.53,0,2.99.18,4.36.54,1.37.36,2.6.88,3.68,1.57v5.54c-1.03-1-2.19-1.76-3.48-2.27-1.28-.51-2.65-.76-4.11-.76-2.71,0-4.84.91-6.39,2.74-1.55,1.82-2.33,4.34-2.33,7.55s.81,5.81,2.43,7.66c1.62,1.85,3.84,2.77,6.66,2.77,1.35,0,2.6-.25,3.76-.76,1.16-.51,2.31-1.31,3.45-2.41v5.82Z"/>
    <path class="st0" d="M161.03,443.38v-17.61c0-2.18-.34-3.78-1.02-4.8-.68-1.02-1.75-1.54-3.21-1.54-1.93,0-3.48.92-4.65,2.75-1.18,1.83-1.76,4.3-1.76,7.4v13.81h-5.24v-28.28h4.74c-.03,1.27-.1,2.52-.2,3.75-.1,1.23-.22,2.43-.36,3.61.86-2.54,2.06-4.46,3.59-5.78,1.53-1.32,3.35-1.97,5.45-1.97,2.54,0,4.49.85,5.85,2.56,1.36,1.71,2.04,4.14,2.04,7.3v18.81h-5.24Z"/>
    <path class="st0" d="M183.53,444.16c-3.57,0-6.41-1.34-8.51-4.03-2.11-2.68-3.16-6.31-3.16-10.88s1.05-8.2,3.16-10.89c2.11-2.68,4.94-4.03,8.51-4.03s6.44,1.35,8.56,4.04c2.12,2.69,3.18,6.32,3.18,10.87s-1.06,8.18-3.18,10.87c-2.12,2.69-4.97,4.04-8.56,4.04ZM183.53,439.48c1.93,0,3.46-.92,4.6-2.77,1.14-1.85,1.71-4.35,1.71-7.51s-.57-5.63-1.71-7.49-2.66-2.79-4.56-2.79-3.43.92-4.56,2.76c-1.13,1.84-1.69,4.35-1.69,7.53s.56,5.65,1.69,7.5c1.13,1.86,2.63,2.78,4.51,2.78Z"/>
    <path class="st0" d="M200.86,443.38v-37.86h5.24v37.86h-5.24Z"/>
    <path class="st0" d="M223.36,444.16c-3.57,0-6.41-1.34-8.51-4.03-2.11-2.68-3.16-6.31-3.16-10.88s1.05-8.2,3.16-10.89c2.11-2.68,4.94-4.03,8.51-4.03s6.44,1.35,8.56,4.04c2.12,2.69,3.18,6.32,3.18,10.87s-1.06,8.18-3.18,10.87c-2.12,2.69-4.98,4.04-8.56,4.04ZM223.36,439.48c1.93,0,3.46-.92,4.6-2.77,1.14-1.85,1.71-4.35,1.71-7.51s-.57-5.63-1.71-7.49-2.66-2.79-4.55-2.79-3.43.92-4.56,2.76-1.69,4.35-1.69,7.53.56,5.65,1.69,7.5,2.63,2.78,4.51,2.78Z"/>
    <path class="st0" d="M244.83,445.49c.61,1.08,1.32,1.85,2.12,2.3s1.86.68,3.16.68c2.22,0,3.86-.69,4.9-2.08s1.56-3.54,1.56-6.47c0-.42-.03-1.1-.09-2.02v-.26c-.77,1.61-1.77,2.83-2.99,3.66-1.23.83-2.64,1.24-4.24,1.24-2.94,0-5.35-1.28-7.23-3.83-1.88-2.55-2.82-5.89-2.82-10.03s.94-7.64,2.83-10.18c1.89-2.54,4.38-3.82,7.48-3.82,1.77,0,3.34.55,4.71,1.64,1.37,1.1,2.46,2.69,3.28,4.77-.24-1.08-.41-2.12-.52-3.12-.11-1-.16-1.96-.16-2.89h5.1v23.96c0,2.3-.21,4.18-.62,5.64-.42,1.46-1.09,2.72-2.03,3.78-1.02,1.17-2.32,2.09-3.9,2.74-1.58.65-3.31.97-5.19.97-2.65,0-4.82-.44-6.52-1.33-1.7-.88-2.91-2.2-3.63-3.96l4.81-1.41ZM250.65,438.19c1.86,0,3.35-.85,4.47-2.54,1.12-1.69,1.68-3.98,1.68-6.86s-.55-5.14-1.66-6.83c-1.1-1.69-2.57-2.54-4.4-2.54s-3.39.84-4.5,2.53c-1.1,1.68-1.66,3.96-1.66,6.85s.55,5.17,1.64,6.86c1.1,1.69,2.57,2.54,4.42,2.54Z"/>
    <path class="st0" d="M276.3,408.95c0,1.02-.38,1.85-1.13,2.49-.75.64-1.73.96-2.94.96s-2.15-.32-2.89-.95c-.74-.63-1.1-1.47-1.1-2.5s.36-1.86,1.09-2.49c.73-.63,1.7-.94,2.9-.94s2.2.31,2.95.94c.74.63,1.12,1.46,1.12,2.49ZM269.65,443.38v-27.36h5.24v27.36h-5.24Z"/>
    <path class="st0" d="M298.33,443.38c.05-1.08.12-2.14.22-3.17.1-1.03.23-2.06.39-3.08-.83,2.27-1.95,4.01-3.36,5.21-1.41,1.21-3.03,1.81-4.86,1.81-3.08,0-5.56-1.33-7.43-3.99-1.87-2.66-2.8-6.21-2.8-10.64s.94-7.96,2.83-10.64c1.89-2.68,4.36-4.02,7.41-4.02,1.74,0,3.28.48,4.63,1.44,1.35.96,2.42,2.35,3.22,4.17-.2-.88-.36-1.76-.47-2.65s-.18-1.8-.21-2.72h5.24v28.28h-4.79ZM291.87,439.58c1.86,0,3.36-.88,4.47-2.65s1.68-4.16,1.68-7.16-.55-5.34-1.66-7.1-2.57-2.64-4.4-2.64-3.35.88-4.47,2.63c-1.12,1.75-1.68,4.13-1.68,7.12s.55,5.39,1.67,7.16c1.11,1.77,2.57,2.65,4.39,2.65Z"/>
    <path class="st0" d="M340.79,443.38c.03-.92.11-1.9.22-2.94.12-1.03.26-2.14.44-3.31-.81,2.25-1.93,3.99-3.36,5.2-1.42,1.21-3.06,1.82-4.91,1.82-3.08,0-5.56-1.33-7.43-3.99-1.87-2.66-2.81-6.21-2.81-10.64s.94-7.96,2.83-10.64c1.88-2.68,4.36-4.02,7.41-4.02,1.74,0,3.28.48,4.63,1.44s2.42,2.35,3.22,4.17c-.22-.78-.38-1.67-.48-2.67s-.15-2.16-.15-3.49v-8.81h5.19v37.86h-4.79ZM334.38,439.58c1.88,0,3.37-.88,4.48-2.65s1.67-4.16,1.67-7.16-.56-5.32-1.67-7.09-2.59-2.65-4.44-2.65-3.36.88-4.47,2.63c-1.12,1.75-1.68,4.13-1.68,7.12s.56,5.37,1.68,7.15c1.12,1.78,2.6,2.67,4.43,2.67Z"/>
    <path class="st0" d="M369.11,443.38c.05-1.08.12-2.14.22-3.17.1-1.03.23-2.06.39-3.08-.83,2.27-1.95,4.01-3.36,5.21-1.41,1.21-3.03,1.81-4.86,1.81-3.09,0-5.56-1.33-7.43-3.99-1.87-2.66-2.81-6.21-2.81-10.64s.94-7.96,2.83-10.64c1.89-2.68,4.36-4.02,7.41-4.02,1.74,0,3.28.48,4.62,1.44,1.35.96,2.42,2.35,3.22,4.17-.21-.88-.36-1.76-.47-2.65s-.18-1.8-.21-2.72h5.24v28.28h-4.79ZM362.65,439.58c1.86,0,3.35-.88,4.47-2.65,1.12-1.77,1.68-4.16,1.68-7.16s-.55-5.34-1.66-7.1c-1.1-1.76-2.57-2.64-4.4-2.64s-3.36.88-4.47,2.63c-1.12,1.75-1.68,4.13-1.68,7.12s.55,5.39,1.67,7.16,2.58,2.65,4.39,2.65Z"/>
    <path class="st0" d="M402.04,443.38h-5.33v-37.27h5.33v37.27Z"/>
    <path class="st0" d="M427.78,443.38v-17.61c0-2.18-.34-3.78-1.02-4.8-.68-1.02-1.75-1.54-3.21-1.54-1.93,0-3.48.92-4.65,2.75s-1.76,4.3-1.76,7.4v13.81h-5.24v-28.28h4.74c-.03,1.27-.1,2.52-.2,3.75-.1,1.23-.22,2.43-.37,3.61.86-2.54,2.06-4.46,3.59-5.78,1.54-1.32,3.35-1.97,5.45-1.97,2.54,0,4.48.85,5.85,2.56,1.36,1.71,2.04,4.14,2.04,7.3v18.81h-5.24Z"/>
    <path class="st0" d="M454.08,406.2v4.51c-.49-.3-.98-.52-1.48-.68-.5-.16-1-.24-1.5-.24-1.1,0-1.95.3-2.55.9-.6.6-.9,1.46-.9,2.57v4.51h5.87v3.99h-5.87v21.61h-5.36v-21.61h-4.79v-3.99h4.79v-3.99c0-2.82.62-4.9,1.86-6.25s3.15-2.02,5.75-2.02c.71,0,1.4.06,2.09.17.69.11,1.39.28,2.09.52Z"/>
    <path class="st0" d="M466.76,444.16c-3.57,0-6.41-1.34-8.51-4.03-2.11-2.68-3.16-6.31-3.16-10.88s1.05-8.2,3.16-10.89c2.11-2.68,4.94-4.03,8.51-4.03s6.44,1.35,8.56,4.04c2.12,2.69,3.18,6.32,3.18,10.87s-1.06,8.18-3.18,10.87c-2.12,2.69-4.97,4.04-8.56,4.04ZM466.76,439.48c1.93,0,3.46-.92,4.6-2.77,1.14-1.85,1.71-4.35,1.71-7.51s-.57-5.63-1.71-7.49-2.66-2.79-4.56-2.79-3.43.92-4.56,2.76c-1.13,1.84-1.69,4.35-1.69,7.53s.56,5.65,1.69,7.5c1.13,1.86,2.63,2.78,4.51,2.78Z"/>
    <path class="st0" d="M484.19,443.38v-28.28h5.05c-.02,1.07-.06,2.19-.14,3.38-.08,1.19-.19,2.51-.33,3.97.94-2.65,2.02-4.6,3.24-5.86,1.22-1.26,2.64-1.89,4.25-1.89.39,0,.81.05,1.26.15.45.1.97.26,1.58.48l-1.2,5.87c-.47-.24-.9-.41-1.29-.52-.39-.11-.78-.16-1.17-.16-1.83,0-3.29.91-4.38,2.72-1.09,1.82-1.63,4.27-1.63,7.38v12.75h-5.24Z"/>
    <path class="st0" d="M501.85,443.38v-28.28h4.74c-.03,1.27-.1,2.52-.2,3.75-.1,1.23-.22,2.43-.36,3.61.78-2.52,1.91-4.44,3.37-5.77,1.46-1.32,3.2-1.99,5.2-1.99,1.75,0,3.24.49,4.47,1.48,1.23.99,2.11,2.4,2.64,4.25,1.1-1.97,2.29-3.42,3.57-4.34,1.28-.92,2.76-1.39,4.41-1.39,2.38,0,4.23.87,5.55,2.6,1.32,1.73,1.98,4.15,1.98,7.27v18.81h-5.24v-17.61c0-2.19-.33-3.79-.97-4.79-.65-1-1.69-1.5-3.11-1.5-1.72,0-3.12.92-4.18,2.75s-1.6,4.28-1.6,7.35v13.81h-5.19v-17.61c0-2.18-.33-3.77-.99-4.78-.66-1.01-1.71-1.52-3.15-1.52-1.72,0-3.11.91-4.16,2.74-1.05,1.82-1.57,4.28-1.57,7.36v13.81h-5.24Z"/>
    <path class="st0" d="M560.73,443.38c.05-1.08.12-2.14.22-3.17.1-1.03.23-2.06.39-3.08-.83,2.27-1.95,4.01-3.36,5.21-1.41,1.21-3.03,1.81-4.86,1.81-3.09,0-5.56-1.33-7.43-3.99-1.87-2.66-2.81-6.21-2.81-10.64s.94-7.96,2.83-10.64c1.89-2.68,4.36-4.02,7.41-4.02,1.74,0,3.28.48,4.62,1.44,1.35.96,2.42,2.35,3.22,4.17-.21-.88-.36-1.76-.47-2.65s-.18-1.8-.21-2.72h5.24v28.28h-4.79ZM554.27,439.58c1.86,0,3.35-.88,4.47-2.65,1.12-1.77,1.68-4.16,1.68-7.16s-.55-5.34-1.66-7.1c-1.1-1.76-2.57-2.64-4.4-2.64s-3.36.88-4.47,2.63c-1.12,1.75-1.68,4.13-1.68,7.12s.55,5.39,1.67,7.16,2.58,2.65,4.39,2.65Z"/>
    <path class="st0" d="M592.92,442.28c-.86.63-1.95,1.1-3.26,1.43-1.32.33-2.77.49-4.37.49-4.35,0-7.79-1.34-10.31-4.02-2.52-2.68-3.78-6.33-3.78-10.94s1.24-8.19,3.73-10.9c2.49-2.71,5.81-4.06,9.96-4.06,1.53,0,2.99.18,4.36.54,1.37.36,2.6.88,3.68,1.57v5.54c-1.03-1-2.19-1.76-3.48-2.27-1.28-.51-2.65-.76-4.11-.76-2.71,0-4.84.91-6.39,2.74-1.55,1.82-2.33,4.34-2.33,7.55s.81,5.81,2.43,7.66c1.62,1.85,3.84,2.77,6.66,2.77,1.35,0,2.6-.25,3.76-.76,1.16-.51,2.31-1.31,3.45-2.41v5.82ZM579.7,452.47v-2.16c1.18.28,2.26.5,3.25.65.99.15,1.85.22,2.57.22s1.34-.16,1.76-.47c.42-.31.63-.75.63-1.32,0-.63-.24-1.09-.73-1.38-.48-.3-1.24-.45-2.25-.45-.31,0-.55,0-.72.01-.16,0-.32.02-.46.04l-.02-4.23h1.74v2.16h.68c1.58,0,2.8.32,3.65.96.85.64,1.28,1.56,1.28,2.75,0,1.36-.46,2.39-1.4,3.09-.93.7-2.32,1.04-4.17,1.04-.78,0-1.67-.08-2.65-.24s-2.04-.38-3.17-.68Z"/>
    <path class="st0" d="M614.15,443.38c.05-1.08.12-2.14.22-3.17.1-1.03.23-2.06.39-3.08-.83,2.27-1.95,4.01-3.36,5.21-1.41,1.21-3.03,1.81-4.86,1.81-3.08,0-5.56-1.33-7.43-3.99-1.87-2.66-2.8-6.21-2.8-10.64s.94-7.96,2.83-10.64c1.89-2.68,4.36-4.02,7.41-4.02,1.74,0,3.28.48,4.63,1.44,1.35.96,2.42,2.35,3.22,4.17-.2-.88-.36-1.76-.47-2.65s-.18-1.8-.21-2.72h5.24v28.28h-4.79ZM615.35,405.19c-.31,1.57-.87,2.77-1.65,3.6-.79.84-1.78,1.26-2.97,1.26-.2,0-.43-.02-.69-.06-.26-.04-.54-.11-.86-.2l-2.25-.66c-.21-.06-.4-.11-.6-.14s-.38-.05-.55-.05c-.47,0-.88.14-1.24.42-.36.28-.65.7-.87,1.25h-2.07c.28-1.57.81-2.77,1.6-3.6.78-.84,1.76-1.26,2.94-1.26.27,0,.52.02.75.06.24.04.45.09.63.15l2.3.66c.36.09.62.16.8.2s.33.06.47.06c.52,0,.96-.14,1.33-.42.37-.28.66-.7.88-1.27h2.07ZM607.7,439.58c1.86,0,3.36-.88,4.47-2.65s1.68-4.16,1.68-7.16-.55-5.34-1.66-7.1-2.57-2.64-4.4-2.64-3.35.88-4.47,2.63c-1.12,1.75-1.68,4.13-1.68,7.12s.55,5.39,1.67,7.16c1.11,1.77,2.57,2.65,4.39,2.65Z"/>
    <path class="st0" d="M636.3,444.16c-3.57,0-6.41-1.34-8.51-4.03-2.11-2.68-3.16-6.31-3.16-10.88s1.05-8.2,3.16-10.89c2.11-2.68,4.94-4.03,8.51-4.03s6.44,1.35,8.56,4.04c2.12,2.69,3.18,6.32,3.18,10.87s-1.06,8.18-3.18,10.87c-2.12,2.69-4.97,4.04-8.56,4.04ZM636.3,439.48c1.93,0,3.46-.92,4.6-2.77,1.14-1.85,1.71-4.35,1.71-7.51s-.57-5.63-1.71-7.49-2.66-2.79-4.56-2.79-3.43.92-4.56,2.76c-1.13,1.84-1.69,4.35-1.69,7.53s.56,5.65,1.69,7.5c1.13,1.86,2.63,2.78,4.51,2.78Z"/>
  </g>
</svg>